G04*
G04 #@! TF.GenerationSoftware,Altium Limited,Altium Designer,20.2.4 (192)*
G04*
G04 Layer_Color=16711935*
%FSLAX25Y25*%
%MOIN*%
G70*
G04*
G04 #@! TF.SameCoordinates,2DDED56A-656B-4157-8572-3E544114C1A7*
G04*
G04*
G04 #@! TF.FilePolarity,Negative*
G04*
G01*
G75*
%ADD40O,0.05131X0.09461*%
%ADD41O,0.05918X0.11036*%
%ADD42R,0.07591X0.07591*%
%ADD43C,0.07591*%
%ADD44R,0.06706X0.06706*%
%ADD45C,0.06706*%
%ADD46C,0.20485*%
%ADD47C,0.05328*%
%ADD48R,0.05328X0.05328*%
%ADD49R,0.05328X0.05328*%
%ADD50R,0.06706X0.06706*%
%ADD51C,0.03162*%
G36*
X192913Y257874D02*
Y-5906D01*
X183071Y-15748D01*
X114827D01*
X114635Y-15286D01*
X118110Y-11811D01*
X181102D01*
X188976Y-3937D01*
X188976Y255906D01*
X181102Y263779D01*
X-3937D01*
X-11811Y255906D01*
Y-3937D01*
X-3937Y-11811D01*
X70866D01*
X74341Y-15286D01*
X74150Y-15748D01*
X-5906D01*
X-15748Y-5906D01*
Y257874D01*
X-5906Y267717D01*
X183071D01*
X192913Y257874D01*
D02*
G37*
D40*
X77992Y12228D02*
D03*
X112008D02*
D03*
D41*
X77992Y-8874D02*
D03*
X112008D02*
D03*
D42*
X10646Y204827D02*
D03*
D43*
Y144827D02*
D03*
X40646D02*
D03*
Y154827D02*
D03*
Y164827D02*
D03*
Y204827D02*
D03*
D44*
X101646Y57827D02*
D03*
X41496Y224410D02*
D03*
X31496Y244094D02*
D03*
D45*
X91646Y57827D02*
D03*
X-7354Y159327D02*
D03*
X31496Y224410D02*
D03*
X180646Y199827D02*
D03*
X41496Y244094D02*
D03*
X181591Y87543D02*
D03*
Y97543D02*
D03*
Y107543D02*
D03*
Y117543D02*
D03*
Y127543D02*
D03*
Y137543D02*
D03*
Y147543D02*
D03*
Y157543D02*
D03*
Y167543D02*
D03*
D46*
X177165Y0D02*
D03*
Y251969D02*
D03*
X0D02*
D03*
Y0D02*
D03*
D47*
X10303Y107827D02*
D03*
X10146Y53327D02*
D03*
X78740Y98425D02*
D03*
Y214567D02*
D03*
D48*
X29988Y107827D02*
D03*
X29831Y53327D02*
D03*
D49*
X78740Y118110D02*
D03*
Y194882D02*
D03*
D50*
X-7354Y149327D02*
D03*
X180646Y209827D02*
D03*
X181591Y177543D02*
D03*
D51*
X86500Y25000D02*
D03*
X98574Y19327D02*
D03*
X106457Y18457D02*
D03*
X86409Y19685D02*
D03*
X102401Y23650D02*
D03*
X58355Y24955D02*
D03*
X91446Y26527D02*
D03*
X27630Y19756D02*
D03*
X64209Y157571D02*
D03*
X106547Y167482D02*
D03*
X106646Y147827D02*
D03*
X152734Y197674D02*
D03*
X120646Y177827D02*
D03*
X132646Y161827D02*
D03*
Y177827D02*
D03*
X118646Y185827D02*
D03*
M02*
