G04*
G04 #@! TF.GenerationSoftware,Altium Limited,Altium Designer,20.2.4 (192)*
G04*
G04 Layer_Physical_Order=2*
G04 Layer_Color=16711680*
%FSLAX25Y25*%
%MOIN*%
G70*
G04*
G04 #@! TF.SameCoordinates,2DDED56A-656B-4157-8572-3E544114C1A7*
G04*
G04*
G04 #@! TF.FilePolarity,Positive*
G04*
G01*
G75*
%ADD12C,0.01000*%
%ADD52O,0.04331X0.08661*%
%ADD53O,0.05118X0.10236*%
%ADD54R,0.06791X0.06791*%
%ADD55C,0.06791*%
%ADD56R,0.05906X0.05906*%
%ADD57C,0.05906*%
%ADD58C,0.19685*%
%ADD59C,0.04528*%
%ADD60R,0.04528X0.04528*%
%ADD61R,0.04528X0.04528*%
%ADD62R,0.05906X0.05906*%
%ADD63C,0.02362*%
G36*
X85827Y260630D02*
X79202Y267255D01*
X79394Y267717D01*
X183071D01*
X192913Y257874D01*
Y238189D01*
Y7874D01*
X188976Y11811D01*
Y234252D01*
X187008Y232283D01*
X165354D01*
X153543Y244094D01*
X125984Y244094D01*
X114173Y232283D01*
D01*
Y196850D01*
X122047Y188976D01*
Y185039D01*
X114173Y177165D01*
Y176999D01*
X101131D01*
X84183Y193947D01*
X83803Y194201D01*
X83354Y194291D01*
X81654D01*
Y197796D01*
X75826D01*
Y191968D01*
X80391D01*
X80504Y191946D01*
X82869D01*
X99817Y174998D01*
X100197Y174743D01*
X100646Y174654D01*
X114173D01*
Y47244D01*
X137795Y23622D01*
X177165Y23622D01*
X192913Y7874D01*
Y-5906D01*
X183071Y-15748D01*
X-5906D01*
X-15748Y-5906D01*
X-15748Y257874D01*
X-5906Y267717D01*
X78740Y267717D01*
X85827Y260630D01*
D02*
G37*
%LPC*%
G36*
X177665Y262805D02*
Y252468D01*
X188002D01*
X187908Y253670D01*
X187509Y255329D01*
X186856Y256906D01*
X185964Y258361D01*
X184856Y259659D01*
X183558Y260767D01*
X182103Y261659D01*
X180526Y262312D01*
X178867Y262711D01*
X177665Y262805D01*
D02*
G37*
G36*
X176665D02*
X175464Y262711D01*
X173804Y262312D01*
X172228Y261659D01*
X170773Y260767D01*
X169475Y259659D01*
X168367Y258361D01*
X167475Y256906D01*
X166822Y255329D01*
X166423Y253670D01*
X166329Y252468D01*
X176665D01*
Y262805D01*
D02*
G37*
G36*
X500D02*
Y252468D01*
X10837D01*
X10742Y253670D01*
X10344Y255329D01*
X9691Y256906D01*
X8799Y258361D01*
X7690Y259659D01*
X6393Y260767D01*
X4938Y261659D01*
X3361Y262312D01*
X1701Y262711D01*
X500Y262805D01*
D02*
G37*
G36*
X-500D02*
X-1701Y262711D01*
X-3361Y262312D01*
X-4938Y261659D01*
X-6393Y260767D01*
X-7690Y259659D01*
X-8799Y258361D01*
X-9691Y256906D01*
X-10344Y255329D01*
X-10742Y253670D01*
X-10837Y252468D01*
X-500D01*
Y262805D01*
D02*
G37*
G36*
X41996Y248015D02*
Y244595D01*
X45417D01*
X45347Y245126D01*
X44949Y246088D01*
X44315Y246914D01*
X43490Y247547D01*
X42528Y247945D01*
X41996Y248015D01*
D02*
G37*
G36*
X40996D02*
X40464Y247945D01*
X39503Y247547D01*
X38677Y246914D01*
X38043Y246088D01*
X37645Y245126D01*
X37575Y244595D01*
X40996D01*
Y248015D01*
D02*
G37*
G36*
X188002Y251468D02*
X177665D01*
Y241132D01*
X178867Y241226D01*
X180526Y241625D01*
X182103Y242278D01*
X183558Y243170D01*
X184856Y244278D01*
X185964Y245576D01*
X186856Y247031D01*
X187509Y248608D01*
X187908Y250267D01*
X188002Y251468D01*
D02*
G37*
G36*
X176665D02*
X166329D01*
X166423Y250267D01*
X166822Y248608D01*
X167475Y247031D01*
X168367Y245576D01*
X169475Y244278D01*
X170773Y243170D01*
X172228Y242278D01*
X173804Y241625D01*
X175464Y241226D01*
X176665Y241132D01*
Y251468D01*
D02*
G37*
G36*
X10837D02*
X500D01*
Y241132D01*
X1701Y241226D01*
X3361Y241625D01*
X4938Y242278D01*
X6393Y243170D01*
X7690Y244278D01*
X8799Y245576D01*
X9691Y247031D01*
X10344Y248608D01*
X10742Y250267D01*
X10837Y251468D01*
D02*
G37*
G36*
X-500D02*
X-10837D01*
X-10742Y250267D01*
X-10344Y248608D01*
X-9691Y247031D01*
X-8799Y245576D01*
X-7690Y244278D01*
X-6393Y243170D01*
X-4938Y242278D01*
X-3361Y241625D01*
X-1701Y241226D01*
X-500Y241132D01*
Y251468D01*
D02*
G37*
G36*
X35099Y247697D02*
X27893D01*
Y240492D01*
X35099D01*
Y247697D01*
D02*
G37*
G36*
X45417Y243595D02*
X41996D01*
Y240174D01*
X42528Y240244D01*
X43490Y240642D01*
X44315Y241275D01*
X44949Y242101D01*
X45347Y243063D01*
X45417Y243595D01*
D02*
G37*
G36*
X40996D02*
X37575D01*
X37645Y243063D01*
X38043Y242101D01*
X38677Y241275D01*
X39503Y240642D01*
X40464Y240244D01*
X40996Y240174D01*
Y243595D01*
D02*
G37*
G36*
X31996Y228330D02*
Y224909D01*
X35417D01*
X35347Y225441D01*
X34949Y226403D01*
X34315Y227229D01*
X33490Y227862D01*
X32528Y228260D01*
X31996Y228330D01*
D02*
G37*
G36*
X45449Y228362D02*
X41996D01*
Y224909D01*
X45449D01*
Y228362D01*
D02*
G37*
G36*
X30996Y228330D02*
X30464Y228260D01*
X29503Y227862D01*
X28677Y227229D01*
X28043Y226403D01*
X27645Y225441D01*
X27575Y224909D01*
X30996D01*
Y228330D01*
D02*
G37*
G36*
X40996Y228362D02*
X37543D01*
Y224909D01*
X40996D01*
Y228362D01*
D02*
G37*
G36*
X35417Y223909D02*
X31996D01*
Y220488D01*
X32528Y220558D01*
X33490Y220957D01*
X34315Y221590D01*
X34949Y222416D01*
X35347Y223378D01*
X35417Y223909D01*
D02*
G37*
G36*
X30996D02*
X27575D01*
X27645Y223378D01*
X28043Y222416D01*
X28677Y221590D01*
X29503Y220957D01*
X30464Y220558D01*
X30996Y220488D01*
Y223909D01*
D02*
G37*
G36*
X45449D02*
X41996D01*
Y220457D01*
X45449D01*
Y223909D01*
D02*
G37*
G36*
X40996D02*
X37543D01*
Y220457D01*
X40996D01*
Y223909D01*
D02*
G37*
G36*
X79240Y217793D02*
Y215067D01*
X81966D01*
X81920Y215419D01*
X81591Y216213D01*
X81068Y216895D01*
X80386Y217418D01*
X79592Y217747D01*
X79240Y217793D01*
D02*
G37*
G36*
X78240Y217793D02*
X77888Y217747D01*
X77094Y217418D01*
X76412Y216895D01*
X75889Y216213D01*
X75560Y215419D01*
X75514Y215067D01*
X78240D01*
Y217793D01*
D02*
G37*
G36*
Y214067D02*
X75514D01*
X75560Y213715D01*
X75889Y212921D01*
X76412Y212239D01*
X77094Y211716D01*
X77888Y211387D01*
X78240Y211341D01*
Y214067D01*
D02*
G37*
G36*
X81966D02*
X79240D01*
Y211341D01*
X79592Y211387D01*
X80386Y211716D01*
X81068Y212239D01*
X81591Y212921D01*
X81920Y213715D01*
X81966Y214067D01*
D02*
G37*
G36*
X15041Y209222D02*
X11146D01*
Y205327D01*
X15041D01*
Y209222D01*
D02*
G37*
G36*
X10146D02*
X6250D01*
Y205327D01*
X10146D01*
Y209222D01*
D02*
G37*
G36*
X40646Y208907D02*
X39590Y208768D01*
X38605Y208361D01*
X37760Y207712D01*
X37112Y206867D01*
X36704Y205883D01*
X36565Y204827D01*
X36704Y203771D01*
X37112Y202786D01*
X37760Y201941D01*
X38605Y201293D01*
X39590Y200885D01*
X40646Y200746D01*
X41702Y200885D01*
X42686Y201293D01*
X43531Y201941D01*
X44180Y202786D01*
X44587Y203771D01*
X44726Y204827D01*
X44587Y205883D01*
X44180Y206867D01*
X43531Y207712D01*
X42686Y208361D01*
X41702Y208768D01*
X40646Y208907D01*
D02*
G37*
G36*
X15041Y204327D02*
X11146D01*
Y200431D01*
X15041D01*
Y204327D01*
D02*
G37*
G36*
X10146D02*
X6250D01*
Y200431D01*
X10146D01*
Y204327D01*
D02*
G37*
G36*
X119146Y187951D02*
Y186327D01*
X120770D01*
X120700Y186678D01*
X120218Y187399D01*
X119497Y187881D01*
X119146Y187951D01*
D02*
G37*
G36*
X118146D02*
X117795Y187881D01*
X117073Y187399D01*
X116591Y186678D01*
X116521Y186327D01*
X118146D01*
Y187951D01*
D02*
G37*
G36*
X120770Y185327D02*
X119146D01*
Y183702D01*
X119497Y183772D01*
X120218Y184254D01*
X120700Y184976D01*
X120770Y185327D01*
D02*
G37*
G36*
X118146D02*
X116521D01*
X116591Y184976D01*
X117073Y184254D01*
X117795Y183772D01*
X118146Y183702D01*
Y185327D01*
D02*
G37*
G36*
X107047Y169607D02*
Y167982D01*
X108671D01*
X108601Y168333D01*
X108119Y169055D01*
X107398Y169537D01*
X107047Y169607D01*
D02*
G37*
G36*
X106047D02*
X105696Y169537D01*
X104974Y169055D01*
X104492Y168333D01*
X104422Y167982D01*
X106047D01*
Y169607D01*
D02*
G37*
G36*
X108671Y166982D02*
X107047D01*
Y165358D01*
X107398Y165428D01*
X108119Y165910D01*
X108601Y166631D01*
X108671Y166982D01*
D02*
G37*
G36*
X106047D02*
X104422D01*
X104492Y166631D01*
X104974Y165910D01*
X105696Y165428D01*
X106047Y165358D01*
Y166982D01*
D02*
G37*
G36*
X40646Y168907D02*
X39590Y168768D01*
X38605Y168361D01*
X37760Y167712D01*
X37112Y166867D01*
X36704Y165883D01*
X36565Y164827D01*
X36704Y163771D01*
X37064Y162903D01*
X34660Y160499D01*
X-3940D01*
X-4207Y161144D01*
X-4785Y161896D01*
X-5537Y162474D01*
X-6414Y162837D01*
X-7354Y162961D01*
X-8295Y162837D01*
X-9171Y162474D01*
X-9924Y161896D01*
X-10501Y161144D01*
X-10864Y160267D01*
X-10988Y159327D01*
X-10864Y158386D01*
X-10501Y157510D01*
X-9924Y156757D01*
X-9171Y156180D01*
X-8295Y155817D01*
X-7354Y155693D01*
X-6414Y155817D01*
X-5537Y156180D01*
X-4785Y156757D01*
X-4207Y157510D01*
X-3940Y158154D01*
X35146D01*
X35594Y158244D01*
X35975Y158498D01*
X38722Y161245D01*
X39590Y160885D01*
X40646Y160746D01*
X41702Y160885D01*
X42686Y161293D01*
X43531Y161941D01*
X44180Y162786D01*
X44587Y163771D01*
X44726Y164827D01*
X44587Y165883D01*
X44180Y166867D01*
X43531Y167712D01*
X42686Y168361D01*
X41702Y168768D01*
X40646Y168907D01*
D02*
G37*
G36*
X64709Y159695D02*
Y158071D01*
X66334D01*
X66264Y158422D01*
X65782Y159143D01*
X65060Y159625D01*
X64709Y159695D01*
D02*
G37*
G36*
X63709D02*
X63358Y159625D01*
X62637Y159143D01*
X62155Y158422D01*
X62085Y158071D01*
X63709D01*
Y159695D01*
D02*
G37*
G36*
X66334Y157071D02*
X64709D01*
Y155446D01*
X65060Y155516D01*
X65782Y155998D01*
X66264Y156720D01*
X66334Y157071D01*
D02*
G37*
G36*
X63709D02*
X62085D01*
X62155Y156720D01*
X62637Y155998D01*
X63358Y155516D01*
X63709Y155446D01*
Y157071D01*
D02*
G37*
G36*
X40646Y158907D02*
X39590Y158768D01*
X38605Y158361D01*
X37760Y157712D01*
X37112Y156867D01*
X36704Y155883D01*
X36565Y154827D01*
X36704Y153771D01*
X37112Y152787D01*
X37760Y151941D01*
X38605Y151293D01*
X39590Y150885D01*
X40646Y150746D01*
X41702Y150885D01*
X42686Y151293D01*
X43531Y151941D01*
X44180Y152787D01*
X44587Y153771D01*
X44726Y154827D01*
X44587Y155883D01*
X44180Y156867D01*
X43531Y157712D01*
X42686Y158361D01*
X41702Y158768D01*
X40646Y158907D01*
D02*
G37*
G36*
X107146Y149951D02*
Y148327D01*
X108770D01*
X108700Y148678D01*
X108218Y149399D01*
X107497Y149881D01*
X107146Y149951D01*
D02*
G37*
G36*
X106146D02*
X105795Y149881D01*
X105073Y149399D01*
X104591Y148678D01*
X104521Y148327D01*
X106146D01*
Y149951D01*
D02*
G37*
G36*
X108770Y147327D02*
X107146D01*
Y145702D01*
X107497Y145772D01*
X108218Y146254D01*
X108700Y146976D01*
X108770Y147327D01*
D02*
G37*
G36*
X106146D02*
X104521D01*
X104591Y146976D01*
X105073Y146254D01*
X105795Y145772D01*
X106146Y145702D01*
Y147327D01*
D02*
G37*
G36*
X33646Y152999D02*
X-7854D01*
X-8205Y152929D01*
X-10957D01*
Y145724D01*
X-3752D01*
Y150654D01*
X33160D01*
X37064Y146751D01*
X36704Y145883D01*
X36565Y144827D01*
X36704Y143771D01*
X37112Y142787D01*
X37760Y141941D01*
X38605Y141293D01*
X39590Y140885D01*
X40646Y140746D01*
X41702Y140885D01*
X42686Y141293D01*
X43531Y141941D01*
X44180Y142787D01*
X44587Y143771D01*
X44726Y144827D01*
X44587Y145883D01*
X44180Y146867D01*
X43531Y147712D01*
X42686Y148361D01*
X41702Y148768D01*
X40646Y148907D01*
X39590Y148768D01*
X38722Y148409D01*
X34475Y152656D01*
X34094Y152910D01*
X33646Y152999D01*
D02*
G37*
G36*
X10646Y148907D02*
X9589Y148768D01*
X8605Y148361D01*
X7760Y147712D01*
X7112Y146867D01*
X6704Y145883D01*
X6565Y144827D01*
X6704Y143771D01*
X7112Y142787D01*
X7760Y141941D01*
X8605Y141293D01*
X9589Y140885D01*
X10646Y140746D01*
X11702Y140885D01*
X12686Y141293D01*
X13531Y141941D01*
X14180Y142787D01*
X14587Y143771D01*
X14726Y144827D01*
X14587Y145883D01*
X14180Y146867D01*
X13531Y147712D01*
X12686Y148361D01*
X11702Y148768D01*
X10646Y148907D01*
D02*
G37*
G36*
X81654Y121024D02*
X75826D01*
Y115197D01*
X81654D01*
Y121024D01*
D02*
G37*
G36*
X10803Y111053D02*
Y108327D01*
X13529D01*
X13483Y108679D01*
X13154Y109473D01*
X12631Y110154D01*
X11949Y110678D01*
X11155Y111006D01*
X10803Y111053D01*
D02*
G37*
G36*
X9803D02*
X9451Y111006D01*
X8657Y110678D01*
X7975Y110154D01*
X7452Y109473D01*
X7123Y108679D01*
X7077Y108327D01*
X9803D01*
Y111053D01*
D02*
G37*
G36*
X32902Y110741D02*
X27074D01*
Y104913D01*
X32902D01*
Y110741D01*
D02*
G37*
G36*
X13529Y107327D02*
X10803D01*
Y104601D01*
X11155Y104647D01*
X11949Y104976D01*
X12631Y105499D01*
X13154Y106181D01*
X13483Y106975D01*
X13529Y107327D01*
D02*
G37*
G36*
X9803D02*
X7077D01*
X7123Y106975D01*
X7452Y106181D01*
X7975Y105499D01*
X8657Y104976D01*
X9451Y104647D01*
X9803Y104601D01*
Y107327D01*
D02*
G37*
G36*
X79240Y101651D02*
Y98925D01*
X81966D01*
X81920Y99277D01*
X81591Y100071D01*
X81068Y100753D01*
X80386Y101276D01*
X79592Y101605D01*
X79240Y101651D01*
D02*
G37*
G36*
X78240Y101651D02*
X77888Y101605D01*
X77094Y101276D01*
X76412Y100753D01*
X75889Y100071D01*
X75560Y99277D01*
X75514Y98925D01*
X78240D01*
Y101651D01*
D02*
G37*
G36*
Y97925D02*
X75514D01*
X75560Y97573D01*
X75889Y96779D01*
X76412Y96097D01*
X77094Y95574D01*
X77888Y95245D01*
X78240Y95199D01*
Y97925D01*
D02*
G37*
G36*
X81966D02*
X79240D01*
Y95199D01*
X79592Y95245D01*
X80386Y95574D01*
X81068Y96097D01*
X81591Y96779D01*
X81920Y97573D01*
X81966Y97925D01*
D02*
G37*
G36*
X105248Y61430D02*
X98043D01*
Y54224D01*
X105248D01*
Y61430D01*
D02*
G37*
G36*
X91646Y61461D02*
X90705Y61337D01*
X89829Y60974D01*
X89076Y60396D01*
X88499Y59644D01*
X88136Y58767D01*
X88012Y57827D01*
X88136Y56886D01*
X88499Y56010D01*
X89076Y55257D01*
X89829Y54680D01*
X90705Y54317D01*
X91646Y54193D01*
X92586Y54317D01*
X93463Y54680D01*
X94215Y55257D01*
X94793Y56010D01*
X95156Y56886D01*
X95280Y57827D01*
X95156Y58767D01*
X94793Y59644D01*
X94215Y60396D01*
X93463Y60974D01*
X92586Y61337D01*
X91646Y61461D01*
D02*
G37*
G36*
X10646Y56553D02*
Y53827D01*
X13372D01*
X13325Y54179D01*
X12997Y54973D01*
X12473Y55655D01*
X11792Y56178D01*
X10998Y56507D01*
X10646Y56553D01*
D02*
G37*
G36*
X9646D02*
X9294Y56507D01*
X8500Y56178D01*
X7818Y55655D01*
X7295Y54973D01*
X6966Y54179D01*
X6920Y53827D01*
X9646D01*
Y56553D01*
D02*
G37*
G36*
X32745Y56240D02*
X26917D01*
Y50413D01*
X32745D01*
Y56240D01*
D02*
G37*
G36*
X13372Y52827D02*
X10646D01*
Y50101D01*
X10998Y50147D01*
X11792Y50476D01*
X12473Y50999D01*
X12997Y51681D01*
X13325Y52475D01*
X13372Y52827D01*
D02*
G37*
G36*
X9646D02*
X6920D01*
X6966Y52475D01*
X7295Y51681D01*
X7818Y50999D01*
X8500Y50476D01*
X9294Y50147D01*
X9646Y50101D01*
Y52827D01*
D02*
G37*
G36*
X95525Y31699D02*
X88046D01*
X87597Y31610D01*
X87217Y31356D01*
X85456Y29595D01*
X85202Y29215D01*
X85113Y28766D01*
Y26219D01*
X85099Y26199D01*
X59726D01*
X59676Y26275D01*
X59070Y26680D01*
X58355Y26822D01*
X57641Y26680D01*
X57035Y26275D01*
X56631Y25670D01*
X56489Y24955D01*
X56631Y24241D01*
X57035Y23635D01*
X57641Y23230D01*
X58355Y23088D01*
X59070Y23230D01*
X59676Y23635D01*
X59822Y23854D01*
X85063D01*
X85180Y23680D01*
X85786Y23275D01*
X86500Y23133D01*
X87214Y23275D01*
X87820Y23680D01*
X88225Y24285D01*
X88367Y25000D01*
X88225Y25714D01*
X87820Y26320D01*
X87458Y26562D01*
Y28280D01*
X88531Y29354D01*
X95039D01*
X100569Y23824D01*
X100534Y23650D01*
X100677Y22936D01*
X101081Y22330D01*
X101687Y21925D01*
X102401Y21783D01*
X103116Y21925D01*
X103721Y22330D01*
X104126Y22936D01*
X104268Y23650D01*
X104126Y24364D01*
X103721Y24970D01*
X103116Y25375D01*
X102401Y25517D01*
X102227Y25482D01*
X96354Y31356D01*
X95973Y31610D01*
X95525Y31699D01*
D02*
G37*
G36*
X28130Y21880D02*
Y20256D01*
X29754D01*
X29684Y20607D01*
X29202Y21328D01*
X28481Y21811D01*
X28130Y21880D01*
D02*
G37*
G36*
X27130D02*
X26779Y21811D01*
X26057Y21328D01*
X25575Y20607D01*
X25506Y20256D01*
X27130D01*
Y21880D01*
D02*
G37*
G36*
X86909Y21809D02*
Y20185D01*
X88533D01*
X88464Y20536D01*
X87982Y21258D01*
X87260Y21740D01*
X86909Y21809D01*
D02*
G37*
G36*
X85909D02*
X85558Y21740D01*
X84837Y21258D01*
X84355Y20536D01*
X84285Y20185D01*
X85909D01*
Y21809D01*
D02*
G37*
G36*
X106957Y20581D02*
Y18957D01*
X108581D01*
X108511Y19308D01*
X108029Y20029D01*
X107308Y20511D01*
X106957Y20581D01*
D02*
G37*
G36*
X105957D02*
X105606Y20511D01*
X104884Y20029D01*
X104402Y19308D01*
X104332Y18957D01*
X105957D01*
Y20581D01*
D02*
G37*
G36*
X29754Y19256D02*
X28130D01*
Y17631D01*
X28481Y17701D01*
X29202Y18183D01*
X29684Y18905D01*
X29754Y19256D01*
D02*
G37*
G36*
X27130D02*
X25506D01*
X25575Y18905D01*
X26057Y18183D01*
X26779Y17701D01*
X27130Y17631D01*
Y19256D01*
D02*
G37*
G36*
X88533Y19185D02*
X86909D01*
Y17561D01*
X87260Y17630D01*
X87982Y18113D01*
X88464Y18834D01*
X88533Y19185D01*
D02*
G37*
G36*
X85909D02*
X84285D01*
X84355Y18834D01*
X84837Y18113D01*
X85558Y17630D01*
X85909Y17561D01*
Y19185D01*
D02*
G37*
G36*
X91446Y28394D02*
X90731Y28252D01*
X90126Y27847D01*
X89721Y27241D01*
X89579Y26527D01*
X89721Y25812D01*
X90126Y25207D01*
X90731Y24802D01*
X91446Y24660D01*
X91590Y24689D01*
X96748Y19531D01*
X96707Y19327D01*
X96850Y18612D01*
X97254Y18007D01*
X97860Y17602D01*
X98574Y17460D01*
X99289Y17602D01*
X99895Y18007D01*
X100299Y18612D01*
X100441Y19327D01*
X100299Y20041D01*
X99895Y20647D01*
X99289Y21052D01*
X98574Y21194D01*
X98430Y21165D01*
X93272Y26323D01*
X93313Y26527D01*
X93170Y27241D01*
X92766Y27847D01*
X92160Y28252D01*
X91446Y28394D01*
D02*
G37*
G36*
X108581Y17957D02*
X106957D01*
Y16332D01*
X107308Y16402D01*
X108029Y16884D01*
X108511Y17606D01*
X108581Y17957D01*
D02*
G37*
G36*
X105957D02*
X104332D01*
X104402Y17606D01*
X104884Y16884D01*
X105606Y16402D01*
X105957Y16332D01*
Y17957D01*
D02*
G37*
G36*
X112008Y17233D02*
X111273Y17137D01*
X110588Y16853D01*
X110000Y16402D01*
X109549Y15813D01*
X109265Y15129D01*
X109168Y14394D01*
Y10063D01*
X109265Y9328D01*
X109549Y8643D01*
X110000Y8055D01*
X110588Y7604D01*
X111273Y7320D01*
X112008Y7223D01*
X112743Y7320D01*
X113428Y7604D01*
X114016Y8055D01*
X114467Y8643D01*
X114751Y9328D01*
X114848Y10063D01*
Y14394D01*
X114751Y15129D01*
X114467Y15813D01*
X114016Y16402D01*
X113428Y16853D01*
X112743Y17137D01*
X112008Y17233D01*
D02*
G37*
G36*
X77992D02*
X77257Y17137D01*
X76572Y16853D01*
X75984Y16402D01*
X75533Y15813D01*
X75249Y15129D01*
X75152Y14394D01*
Y10063D01*
X75249Y9328D01*
X75533Y8643D01*
X75984Y8055D01*
X76572Y7604D01*
X77257Y7320D01*
X77992Y7223D01*
X78727Y7320D01*
X79412Y7604D01*
X80000Y8055D01*
X80451Y8643D01*
X80735Y9328D01*
X80832Y10063D01*
Y14394D01*
X80735Y15129D01*
X80451Y15813D01*
X80000Y16402D01*
X79412Y16853D01*
X78727Y17137D01*
X77992Y17233D01*
D02*
G37*
G36*
X177665Y10837D02*
Y500D01*
X188002D01*
X187908Y1701D01*
X187509Y3361D01*
X186856Y4938D01*
X185964Y6393D01*
X184856Y7690D01*
X183558Y8799D01*
X182103Y9691D01*
X180526Y10344D01*
X178867Y10742D01*
X177665Y10837D01*
D02*
G37*
G36*
X176665D02*
X175464Y10742D01*
X173804Y10344D01*
X172228Y9691D01*
X170773Y8799D01*
X169475Y7690D01*
X168367Y6393D01*
X167475Y4938D01*
X166822Y3361D01*
X166423Y1701D01*
X166329Y500D01*
X176665D01*
Y10837D01*
D02*
G37*
G36*
X500D02*
Y500D01*
X10837D01*
X10742Y1701D01*
X10344Y3361D01*
X9691Y4938D01*
X8799Y6393D01*
X7690Y7690D01*
X6393Y8799D01*
X4938Y9691D01*
X3361Y10344D01*
X1701Y10742D01*
X500Y10837D01*
D02*
G37*
G36*
X-500D02*
X-1701Y10742D01*
X-3361Y10344D01*
X-4938Y9691D01*
X-6393Y8799D01*
X-7690Y7690D01*
X-8799Y6393D01*
X-9691Y4938D01*
X-10344Y3361D01*
X-10742Y1701D01*
X-10837Y500D01*
X-500D01*
Y10837D01*
D02*
G37*
G36*
X188002Y-500D02*
X177665D01*
Y-10837D01*
X178867Y-10742D01*
X180526Y-10344D01*
X182103Y-9691D01*
X183558Y-8799D01*
X184856Y-7690D01*
X185964Y-6393D01*
X186856Y-4938D01*
X187509Y-3361D01*
X187908Y-1701D01*
X188002Y-500D01*
D02*
G37*
G36*
X176665D02*
X166329D01*
X166423Y-1701D01*
X166822Y-3361D01*
X167475Y-4938D01*
X168367Y-6393D01*
X169475Y-7690D01*
X170773Y-8799D01*
X172228Y-9691D01*
X173804Y-10344D01*
X175464Y-10742D01*
X176665Y-10837D01*
Y-500D01*
D02*
G37*
G36*
X10837D02*
X500D01*
Y-10837D01*
X1701Y-10742D01*
X3361Y-10344D01*
X4938Y-9691D01*
X6393Y-8799D01*
X7690Y-7690D01*
X8799Y-6393D01*
X9691Y-4938D01*
X10344Y-3361D01*
X10742Y-1701D01*
X10837Y-500D01*
D02*
G37*
G36*
X-500D02*
X-10837D01*
X-10742Y-1701D01*
X-10344Y-3361D01*
X-9691Y-4938D01*
X-8799Y-6393D01*
X-7690Y-7690D01*
X-6393Y-8799D01*
X-4938Y-9691D01*
X-3361Y-10344D01*
X-1701Y-10742D01*
X-500Y-10837D01*
Y-500D01*
D02*
G37*
G36*
X112008Y-3078D02*
X111170Y-3189D01*
X110389Y-3512D01*
X109719Y-4026D01*
X109205Y-4697D01*
X108881Y-5477D01*
X108771Y-6315D01*
Y-11433D01*
X108881Y-12271D01*
X109205Y-13051D01*
X109719Y-13722D01*
X110389Y-14236D01*
X111170Y-14559D01*
X112008Y-14670D01*
X112846Y-14559D01*
X113626Y-14236D01*
X114297Y-13722D01*
X114811Y-13051D01*
X115134Y-12271D01*
X115245Y-11433D01*
Y-6315D01*
X115134Y-5477D01*
X114811Y-4697D01*
X114297Y-4026D01*
X113626Y-3512D01*
X112846Y-3189D01*
X112008Y-3078D01*
D02*
G37*
G36*
X77992D02*
X77154Y-3189D01*
X76374Y-3512D01*
X75703Y-4026D01*
X75189Y-4697D01*
X74866Y-5477D01*
X74755Y-6315D01*
Y-11433D01*
X74866Y-12271D01*
X75189Y-13051D01*
X75703Y-13722D01*
X76374Y-14236D01*
X77154Y-14559D01*
X77992Y-14670D01*
X78830Y-14559D01*
X79611Y-14236D01*
X80281Y-13722D01*
X80795Y-13051D01*
X81119Y-12271D01*
X81229Y-11433D01*
Y-6315D01*
X81119Y-5477D01*
X80795Y-4697D01*
X80281Y-4026D01*
X79611Y-3512D01*
X78830Y-3189D01*
X77992Y-3078D01*
D02*
G37*
%LPD*%
D12*
X58131Y25027D02*
X86546D01*
X98574Y19327D02*
Y19362D01*
X91446Y26491D02*
X98574Y19362D01*
X91446Y26491D02*
Y26527D01*
X86285Y28766D02*
X88046Y30527D01*
X86285Y25287D02*
Y28766D01*
Y25287D02*
X86546Y25027D01*
X88046Y30527D02*
X95525D01*
X102401Y23650D01*
X120646Y177827D02*
X140646Y197827D01*
X152646D01*
X118646Y175827D02*
X120646Y177827D01*
X100646Y175827D02*
X118646D01*
X78740Y194882D02*
X80504Y193118D01*
X83354D01*
X100646Y175827D01*
X132646Y161827D02*
Y177827D01*
X-7354Y159327D02*
X35146D01*
X40646Y164827D01*
X-7854Y149827D02*
Y151827D01*
Y149827D02*
X-7354Y149327D01*
X33646Y151827D02*
X40646Y144827D01*
X-7854Y151827D02*
X33646D01*
D52*
X77992Y12228D02*
D03*
X112008D02*
D03*
D53*
X77992Y-8874D02*
D03*
X112008D02*
D03*
D54*
X10646Y204827D02*
D03*
D55*
Y144827D02*
D03*
X40646D02*
D03*
Y154827D02*
D03*
Y164827D02*
D03*
Y204827D02*
D03*
D56*
X101646Y57827D02*
D03*
X41496Y224410D02*
D03*
X31496Y244094D02*
D03*
D57*
X91646Y57827D02*
D03*
X-7354Y159327D02*
D03*
X31496Y224410D02*
D03*
X180646Y199827D02*
D03*
X41496Y244094D02*
D03*
X181591Y87543D02*
D03*
Y97543D02*
D03*
Y107543D02*
D03*
Y117543D02*
D03*
Y127543D02*
D03*
Y137543D02*
D03*
Y147543D02*
D03*
Y157543D02*
D03*
Y167543D02*
D03*
D58*
X177165Y0D02*
D03*
Y251969D02*
D03*
X0D02*
D03*
Y0D02*
D03*
D59*
X10303Y107827D02*
D03*
X10146Y53327D02*
D03*
X78740Y98425D02*
D03*
Y214567D02*
D03*
D60*
X29988Y107827D02*
D03*
X29831Y53327D02*
D03*
D61*
X78740Y118110D02*
D03*
Y194882D02*
D03*
D62*
X-7354Y149327D02*
D03*
X180646Y209827D02*
D03*
X181591Y177543D02*
D03*
D63*
X86500Y25000D02*
D03*
X98574Y19327D02*
D03*
X106457Y18457D02*
D03*
X86409Y19685D02*
D03*
X102401Y23650D02*
D03*
X58355Y24955D02*
D03*
X91446Y26527D02*
D03*
X27630Y19756D02*
D03*
X64209Y157571D02*
D03*
X106547Y167482D02*
D03*
X106646Y147827D02*
D03*
X152734Y197674D02*
D03*
X120646Y177827D02*
D03*
X132646Y161827D02*
D03*
Y177827D02*
D03*
X118646Y185827D02*
D03*
M02*
