G04*
G04 #@! TF.GenerationSoftware,Altium Limited,Altium Designer,20.2.4 (192)*
G04*
G04 Layer_Color=8388736*
%FSLAX25Y25*%
%MOIN*%
G70*
G04*
G04 #@! TF.SameCoordinates,2DDED56A-656B-4157-8572-3E544114C1A7*
G04*
G04*
G04 #@! TF.FilePolarity,Negative*
G04*
G01*
G75*
%ADD27R,0.01981X0.03556*%
%ADD28R,0.04737X0.03556*%
%ADD29R,0.06312X0.03359*%
%ADD30R,0.06115X0.05131*%
%ADD31R,0.06312X0.05131*%
%ADD32R,0.03359X0.06312*%
%ADD33R,0.05131X0.06115*%
%ADD34R,0.05131X0.06312*%
%ADD35R,0.08674X0.09461*%
%ADD36R,0.04100X0.03950*%
%ADD37R,0.03950X0.04100*%
%ADD38R,0.03162X0.08556*%
%ADD39R,0.05800X0.04800*%
%ADD40O,0.05131X0.09461*%
%ADD41O,0.05918X0.11036*%
%ADD42R,0.07591X0.07591*%
%ADD43C,0.07591*%
%ADD44R,0.06706X0.06706*%
%ADD45C,0.06706*%
%ADD46C,0.20485*%
%ADD47C,0.05328*%
%ADD48R,0.05328X0.05328*%
%ADD49R,0.05328X0.05328*%
%ADD50R,0.06706X0.06706*%
%ADD51C,0.03162*%
G36*
X192913Y257874D02*
Y-5906D01*
X183071Y-15748D01*
X114827D01*
X114635Y-15286D01*
X118110Y-11811D01*
X181102D01*
X188976Y-3937D01*
X188976Y255906D01*
X181102Y263779D01*
X-3937D01*
X-11811Y255906D01*
Y-3937D01*
X-3937Y-11811D01*
X70866D01*
X74341Y-15286D01*
X74150Y-15748D01*
X-5906D01*
X-15748Y-5906D01*
Y257874D01*
X-5906Y267717D01*
X183071D01*
X192913Y257874D01*
D02*
G37*
D27*
X83189Y13842D02*
D03*
X85158D02*
D03*
X87126D02*
D03*
X89095D02*
D03*
X91063D02*
D03*
X93032D02*
D03*
X96969D02*
D03*
X98937D02*
D03*
X100906D02*
D03*
X102874D02*
D03*
X104842D02*
D03*
X106811D02*
D03*
X103858Y8724D02*
D03*
X101890D02*
D03*
X99921D02*
D03*
X97953D02*
D03*
X95984D02*
D03*
X94016D02*
D03*
X92047D02*
D03*
X90079D02*
D03*
X88110D02*
D03*
X86142D02*
D03*
D28*
X107205D02*
D03*
X82795D02*
D03*
D29*
X165650Y72087D02*
D03*
Y46024D02*
D03*
D30*
X141437Y62992D02*
D03*
D31*
Y55118D02*
D03*
D32*
X122701Y254390D02*
D03*
X148764D02*
D03*
D33*
X131795Y230177D02*
D03*
D34*
X139669D02*
D03*
D35*
X52551Y19827D02*
D03*
X40740D02*
D03*
X52457Y5827D02*
D03*
X40646D02*
D03*
X88551Y147827D02*
D03*
X76740D02*
D03*
Y167827D02*
D03*
X88551D02*
D03*
D36*
X61246Y165327D02*
D03*
X55045D02*
D03*
X61246Y144827D02*
D03*
X55045D02*
D03*
X51545Y157827D02*
D03*
X57746D02*
D03*
X157545Y89827D02*
D03*
X163746D02*
D03*
X157545Y99827D02*
D03*
X163746D02*
D03*
X157545Y109827D02*
D03*
X163746D02*
D03*
X157545Y119827D02*
D03*
X163746D02*
D03*
X157545Y129827D02*
D03*
X163746D02*
D03*
X157545Y139827D02*
D03*
X163746D02*
D03*
X157545Y149827D02*
D03*
X163746D02*
D03*
X157545Y179827D02*
D03*
X163746D02*
D03*
X157545Y159827D02*
D03*
X163746D02*
D03*
X157545Y169827D02*
D03*
X163746D02*
D03*
X132646Y191827D02*
D03*
X126445D02*
D03*
X147746D02*
D03*
X141545D02*
D03*
D37*
X90146Y32626D02*
D03*
Y38827D02*
D03*
X112646Y208927D02*
D03*
Y202726D02*
D03*
X160646Y202726D02*
D03*
Y208927D02*
D03*
X152646Y202726D02*
D03*
Y208927D02*
D03*
X120646Y208927D02*
D03*
Y202726D02*
D03*
X83646Y32726D02*
D03*
Y38927D02*
D03*
X109146Y32726D02*
D03*
Y38927D02*
D03*
X103146Y32726D02*
D03*
Y38927D02*
D03*
D38*
X136583Y151496D02*
D03*
X131583D02*
D03*
X126583D02*
D03*
X121583D02*
D03*
Y132008D02*
D03*
X126583D02*
D03*
X131583D02*
D03*
X136583D02*
D03*
D39*
X132583Y202339D02*
D03*
Y209425D02*
D03*
X129921Y67716D02*
D03*
Y74803D02*
D03*
X141083Y202382D02*
D03*
Y209469D02*
D03*
D40*
X77992Y12228D02*
D03*
X112008D02*
D03*
D41*
X77992Y-8874D02*
D03*
X112008D02*
D03*
D42*
X10646Y204827D02*
D03*
D43*
Y144827D02*
D03*
X40646D02*
D03*
Y154827D02*
D03*
Y164827D02*
D03*
Y204827D02*
D03*
D44*
X101646Y57827D02*
D03*
X41496Y224410D02*
D03*
X31496Y244094D02*
D03*
D45*
X91646Y57827D02*
D03*
X-7354Y159327D02*
D03*
X31496Y224410D02*
D03*
X180646Y199827D02*
D03*
X41496Y244094D02*
D03*
X181591Y87543D02*
D03*
Y97543D02*
D03*
Y107543D02*
D03*
Y117543D02*
D03*
Y127543D02*
D03*
Y137543D02*
D03*
Y147543D02*
D03*
Y157543D02*
D03*
Y167543D02*
D03*
D46*
X177165Y0D02*
D03*
Y251969D02*
D03*
X0D02*
D03*
Y0D02*
D03*
D47*
X10303Y107827D02*
D03*
X10146Y53327D02*
D03*
X78740Y98425D02*
D03*
Y214567D02*
D03*
D48*
X29988Y107827D02*
D03*
X29831Y53327D02*
D03*
D49*
X78740Y118110D02*
D03*
Y194882D02*
D03*
D50*
X-7354Y149327D02*
D03*
X180646Y209827D02*
D03*
X181591Y177543D02*
D03*
D51*
X86500Y25000D02*
D03*
X98574Y19327D02*
D03*
X106457Y18457D02*
D03*
X86409Y19685D02*
D03*
X102401Y23650D02*
D03*
X58355Y24955D02*
D03*
X91446Y26527D02*
D03*
X27630Y19756D02*
D03*
X64209Y157571D02*
D03*
X106547Y167482D02*
D03*
X106646Y147827D02*
D03*
X152734Y197674D02*
D03*
X120646Y177827D02*
D03*
X132646Y161827D02*
D03*
Y177827D02*
D03*
X118646Y185827D02*
D03*
M02*
