M48
;Layer_Color=9474304
;FILE_FORMAT=2:5
INCH,LZ
;TYPE=PLATED
T1F00S00C0.01181
T3F00S00C0.03150
T4F00S00C0.03543
T5F00S00C0.04528
T6F00S00C0.11811
%
T01
X002763Y0019756
X0058355Y0024955
X00865Y0025
X0086409Y0019685
X0091446Y0026527
X0102401Y002365
X0098574Y0019327
X0106457Y0018457
X0152734Y0197674
X0132646Y0177827
X0120646
X0118646Y0185827
X0106547Y0167482
X0106646Y0147827
X0132646Y0161827
X0064209Y0157571
T03
X0010146Y0053327
X0029831
X0029988Y0107827
X0010303
X007874Y0098425
Y011811
Y0194882
Y0214567
T04
X0181591Y0087543
Y0097543
Y0107543
Y0117543
Y0127543
Y0137543
Y0147543
Y0157543
Y0167543
Y0177543
X0101646Y0057827
X0091646
X-0007354Y0149327
Y0159327
X0031496Y022441
X0041496
Y0244094
X0031496
X0180646Y0209827
Y0199827
T05
X0010646Y0144827
X0040646
Y0154827
Y0164827
Y0204827
X0010646
T06
X0Y0
X0177165
X0Y0251969
X0177165
M30
