G04*
G04 #@! TF.GenerationSoftware,Altium Limited,Altium Designer,20.2.4 (192)*
G04*
G04 Layer_Color=65535*
%FSLAX25Y25*%
%MOIN*%
G70*
G04*
G04 #@! TF.SameCoordinates,2DDED56A-656B-4157-8572-3E544114C1A7*
G04*
G04*
G04 #@! TF.FilePolarity,Positive*
G04*
G01*
G75*
%ADD10C,0.00787*%
%ADD11C,0.00500*%
%ADD12C,0.01000*%
%ADD13C,0.00800*%
G36*
X150649Y40627D02*
X150714Y40497D01*
X150941Y40335D01*
X151039Y39848D01*
X151266Y39685D01*
X151299Y39523D01*
X151234Y39393D01*
X151331Y39230D01*
X151461Y39165D01*
X151559Y39068D01*
X151623Y38873D01*
X151559Y38678D01*
Y38288D01*
Y38223D01*
X151623Y37704D01*
X151851Y37541D01*
X151916Y35852D01*
X152208Y35625D01*
X152273Y31467D01*
X152371Y31369D01*
X152468Y31337D01*
X152533Y31207D01*
X152630Y31109D01*
X153085Y31045D01*
X153215Y30785D01*
X153670Y30720D01*
X153767Y30622D01*
X153832Y30492D01*
X154320Y30395D01*
X154417Y30297D01*
X154482Y30167D01*
X154969Y30070D01*
X155132Y29843D01*
X155587Y29778D01*
X155651Y29648D01*
X156723Y28576D01*
X156853Y28511D01*
X156951Y28024D01*
X157048Y27926D01*
X157178Y27861D01*
X157308Y27666D01*
X157438Y27601D01*
X157536Y27374D01*
X157471Y27244D01*
X157633Y27017D01*
X157763Y26952D01*
X157925Y26724D01*
X158120Y26594D01*
X158185Y26140D01*
X158510Y25880D01*
X158543Y25782D01*
X158672Y25717D01*
X158770Y25620D01*
X158802Y25197D01*
X159030Y25100D01*
X159095Y24840D01*
X159030Y24710D01*
X159257Y24483D01*
X159355Y24450D01*
X159420Y24320D01*
X159517Y24223D01*
X159647Y24158D01*
X159744Y23671D01*
X159842Y23573D01*
X159972Y23508D01*
X160037Y22729D01*
X160329Y22501D01*
X160297Y21624D01*
X160427Y21429D01*
X160556Y21364D01*
X160654Y21072D01*
X160589Y20812D01*
X160622Y16882D01*
X160427Y16687D01*
X160329Y16654D01*
X160264Y16395D01*
X160329Y16135D01*
X160264Y14965D01*
X160167Y14868D01*
X160037Y14803D01*
X159972Y14543D01*
X160004Y14056D01*
X159907Y13958D01*
X159777Y13893D01*
X159679Y13796D01*
X159615Y13341D01*
X159387Y13179D01*
X159322Y12724D01*
X159192Y12659D01*
X157471Y10937D01*
X157438Y10840D01*
X156983Y10775D01*
X156821Y10612D01*
X156788Y10515D01*
X156658Y10450D01*
X155911Y9703D01*
X155879Y9605D01*
X155749Y9540D01*
X155002Y8793D01*
X154937Y8663D01*
X154709Y8501D01*
X154645Y8046D01*
X154515Y7981D01*
X153865Y7332D01*
X153767Y7299D01*
X153702Y6195D01*
X153475Y6032D01*
X153410Y4993D01*
X153280Y4863D01*
X153150Y4798D01*
X153118Y4440D01*
X153508Y4051D01*
X153540Y3953D01*
X157438Y3888D01*
X157536Y3791D01*
X157600Y3661D01*
X158088Y3563D01*
X158283Y3304D01*
X158413Y3239D01*
X158607Y2979D01*
X158737Y2914D01*
X158867Y2719D01*
X158997Y2654D01*
X159160Y2427D01*
X159355Y2297D01*
X159420Y2102D01*
X159355Y1907D01*
X159387Y1160D01*
X159322Y575D01*
X159192Y510D01*
X159030Y348D01*
X158997Y250D01*
X158867Y185D01*
X158705Y23D01*
X158672Y-75D01*
X158218Y-140D01*
X158120Y-237D01*
X158055Y-367D01*
X157828Y-530D01*
X157698Y-724D01*
X157243Y-789D01*
X157081Y-1017D01*
X156658Y-1049D01*
X156528Y-984D01*
X156301Y-1082D01*
X156204Y-1309D01*
X155944Y-1374D01*
X154287Y-1342D01*
X154092Y-1472D01*
X154027Y-1666D01*
X154092Y-1861D01*
X154027Y-7189D01*
X153930Y-7286D01*
X153800Y-7351D01*
X153735Y-8390D01*
X153280Y-8845D01*
X152306Y-8780D01*
X152143Y-8618D01*
X152111Y-8520D01*
X151656Y-8456D01*
X151559Y-8358D01*
X151494Y-8228D01*
X151006Y-8131D01*
X150876Y-7936D01*
X150747Y-7871D01*
X150649Y-7773D01*
X150584Y-7643D01*
X150357Y-7481D01*
X150227Y-7286D01*
X150097Y-7221D01*
X149999Y-7124D01*
X149934Y-6994D01*
X149707Y-6831D01*
X149674Y-6539D01*
X149740Y-6344D01*
X149674Y-6084D01*
X149415Y-5954D01*
X149382Y-5662D01*
X149415Y-4005D01*
X149252Y-3843D01*
X149122Y-3778D01*
X149025Y-3291D01*
X148927Y-3193D01*
X148798Y-3128D01*
X148635Y-2901D01*
X148505Y-2836D01*
X148440Y-2706D01*
X148343Y-2608D01*
X148213Y-2544D01*
X148115Y-2251D01*
X148180Y-2121D01*
X148018Y-1959D01*
X147563Y-1894D01*
X147401Y-1666D01*
X147206Y-1536D01*
X147141Y-1407D01*
X147043Y-1309D01*
X146946Y-1277D01*
X146881Y-1147D01*
X146783Y-1049D01*
X146653Y-984D01*
X146491Y-757D01*
X146296Y-627D01*
X146231Y-497D01*
X146134Y-399D01*
X145712Y-367D01*
X145647Y-237D01*
X145484Y-75D01*
X145387Y-42D01*
X145322Y88D01*
X145224Y185D01*
X144770Y250D01*
X144640Y510D01*
X144185Y575D01*
X144087Y672D01*
X144022Y802D01*
X143535Y900D01*
X143438Y997D01*
X143373Y1127D01*
X142885Y1225D01*
X142723Y1452D01*
X142528Y1582D01*
X142463Y1712D01*
X142366Y1809D01*
X142268Y1842D01*
X142203Y1972D01*
X142106Y2069D01*
X141976Y2134D01*
X141781Y2394D01*
X141326Y2459D01*
X141001Y2849D01*
X140482Y3368D01*
X140384Y3401D01*
X140319Y3531D01*
X140222Y3628D01*
X139832Y3693D01*
X139410Y4116D01*
X139345Y4505D01*
X139247Y4603D01*
X139150Y4635D01*
X139085Y4765D01*
X138923Y4928D01*
X138825Y4960D01*
X138760Y5155D01*
X138825Y5350D01*
X138663Y5513D01*
X138533Y5577D01*
X138435Y6065D01*
X138338Y6162D01*
X138208Y6227D01*
X138143Y7007D01*
X138013Y7072D01*
X137850Y7234D01*
X137818Y7656D01*
X137591Y7754D01*
X137526Y8014D01*
X137591Y8144D01*
X137428Y8306D01*
X137298Y8371D01*
X137201Y8663D01*
X137266Y8923D01*
X137201Y9183D01*
X136973Y9346D01*
X136876Y9833D01*
X136649Y9995D01*
X136584Y10710D01*
X136454Y10840D01*
X136324Y10905D01*
X136226Y11392D01*
X135967Y11587D01*
X135999Y12529D01*
X135869Y12659D01*
X135739Y12724D01*
X135707Y12951D01*
X135967Y13081D01*
X136031Y13341D01*
X135967Y13601D01*
X136031Y17564D01*
X136194Y17726D01*
X136291Y17759D01*
X136324Y17986D01*
X136291Y20033D01*
X136454Y20195D01*
X136584Y20260D01*
X136649Y21299D01*
X136778Y21429D01*
X136908Y21494D01*
X136973Y22599D01*
X137266Y22826D01*
X137233Y23443D01*
X137428Y23638D01*
X137526Y23671D01*
X137591Y23931D01*
X137526Y24191D01*
X137591Y24450D01*
X137688Y24548D01*
X137818Y24613D01*
X137883Y24873D01*
X137850Y25360D01*
X137948Y25457D01*
X138175Y25555D01*
X138208Y26042D01*
X138500Y26204D01*
X138468Y26757D01*
X138565Y26984D01*
X138760Y27114D01*
X138825Y27244D01*
X138923Y27341D01*
X139052Y27406D01*
X139150Y27569D01*
X139085Y27764D01*
X139150Y27894D01*
X139247Y27991D01*
X139377Y28056D01*
X139475Y28543D01*
X139865Y28868D01*
X141034Y30038D01*
X141066Y30135D01*
X141521Y30200D01*
X141619Y30297D01*
X141684Y30427D01*
X142171Y30525D01*
X142366Y30785D01*
X142821Y30850D01*
X143015Y31109D01*
X143275Y31045D01*
X143438Y31142D01*
X143503Y31272D01*
X143925Y31694D01*
X144640Y31759D01*
X144737Y31857D01*
X144802Y31987D01*
X145906Y32052D01*
X145971Y32182D01*
X146134Y32344D01*
X147758Y32409D01*
X148018Y32669D01*
X148115Y32701D01*
X148180Y32961D01*
X148148Y34358D01*
X148343Y34553D01*
X148440Y34585D01*
X148505Y34845D01*
X148440Y35105D01*
X148473Y35852D01*
X148440Y36209D01*
X148765Y36534D01*
X148830Y38483D01*
X148927Y38581D01*
X149057Y38646D01*
X149122Y39425D01*
X149415Y39653D01*
X149447Y40075D01*
X149577Y40140D01*
X149740Y40302D01*
X149707Y40595D01*
X149772Y40725D01*
X150064Y40757D01*
X150227Y40725D01*
X150422Y40790D01*
X150649Y40627D01*
D02*
G37*
%LPC*%
G36*
X147693Y32019D02*
X146978Y31954D01*
X146881Y31857D01*
X146848Y31759D01*
X146589Y31694D01*
X146166Y31727D01*
X145971Y31597D01*
X145906Y31467D01*
X145809Y31369D01*
X145224Y31434D01*
X145062Y31337D01*
X144964Y31109D01*
X144704Y31045D01*
X144445Y31109D01*
X144185Y31045D01*
X144087Y30947D01*
X144022Y30817D01*
X143535Y30720D01*
X143373Y30492D01*
X142885Y30395D01*
X142723Y30167D01*
X142268Y30103D01*
X142171Y29875D01*
X141976Y29810D01*
X141781Y29875D01*
X141554Y29648D01*
X141521Y29550D01*
X141391Y29485D01*
X141229Y29323D01*
X141196Y29226D01*
X141066Y29160D01*
X140969Y29063D01*
X140904Y28933D01*
X140677Y28771D01*
X140612Y28641D01*
X140482Y28576D01*
X140319Y28413D01*
X140287Y28316D01*
X140157Y28251D01*
X140059Y28153D01*
X139994Y27699D01*
X139734Y27569D01*
X139670Y27114D01*
X139572Y27017D01*
X139442Y26952D01*
X139345Y26464D01*
X139247Y26367D01*
X139117Y26302D01*
X139020Y25815D01*
X138793Y25652D01*
X138760Y25360D01*
X138825Y25165D01*
X138760Y24905D01*
X138500Y24775D01*
X138468Y24483D01*
X138500Y24061D01*
X138338Y23898D01*
X138208Y23833D01*
X138110Y23346D01*
X137883Y23183D01*
X137818Y22404D01*
X137688Y22339D01*
X137526Y22176D01*
X137558Y20650D01*
X137493Y20520D01*
X137266Y20422D01*
X137201Y20163D01*
X137266Y19903D01*
X137201Y19318D01*
X137103Y19220D01*
X136973Y19156D01*
X136876Y18928D01*
X136941Y18733D01*
X136876Y15550D01*
X136649Y15387D01*
X136616Y12172D01*
X136714Y12074D01*
X136844Y12009D01*
X136941Y11912D01*
X136908Y11360D01*
X136973Y11165D01*
X137201Y11067D01*
X137266Y10807D01*
X137201Y10677D01*
X137363Y10515D01*
X137493Y10450D01*
X137591Y10158D01*
X137526Y9898D01*
X137591Y9638D01*
X137850Y9443D01*
X137916Y8988D01*
X138175Y8793D01*
X138240Y8079D01*
X138338Y7981D01*
X138468Y7916D01*
X138565Y7429D01*
X138793Y7267D01*
X138825Y6974D01*
X138760Y6779D01*
X138825Y6520D01*
X139052Y6357D01*
X139117Y5967D01*
X139637Y5447D01*
X139734Y5415D01*
X139799Y4960D01*
X139897Y4863D01*
X139994Y4830D01*
X140059Y4700D01*
X140222Y4538D01*
X140319Y4505D01*
X140384Y4375D01*
X140547Y4213D01*
X140644Y4181D01*
X140709Y4051D01*
X140806Y3953D01*
X141229Y3921D01*
X141294Y3791D01*
X142268Y2816D01*
X142301Y2719D01*
X142755Y2654D01*
X143503Y1907D01*
X143535Y1809D01*
X144055Y1679D01*
X144185Y1484D01*
X144640Y1419D01*
X144737Y1322D01*
X144802Y1192D01*
X145289Y1095D01*
X145452Y867D01*
X145906Y802D01*
X145971Y672D01*
X146621Y23D01*
X146653Y-75D01*
X147108Y-140D01*
X149740Y-2771D01*
X149772Y-2868D01*
X149902Y-2933D01*
X149999Y-3031D01*
X150064Y-3226D01*
X149999Y-3421D01*
X150064Y-5305D01*
X150162Y-5402D01*
X150292Y-5467D01*
X150357Y-6247D01*
X150649Y-6474D01*
X150714Y-6929D01*
X150974Y-7124D01*
X151039Y-7254D01*
X151526Y-7351D01*
X151656Y-7546D01*
X151786Y-7611D01*
X151883Y-7708D01*
X151948Y-7838D01*
X152241Y-7936D01*
X152436Y-7871D01*
X152760Y-7936D01*
X152825D01*
X153118Y-7838D01*
X153183Y-7384D01*
X153345Y-7221D01*
X153443Y-7189D01*
X153475Y-6961D01*
X153410Y-1764D01*
X153280Y-1634D01*
X153150Y-1569D01*
X153118Y-887D01*
X153280Y-724D01*
X153410Y-659D01*
X153572Y-432D01*
X154255Y-399D01*
X154352Y-497D01*
X154417Y-627D01*
X154515Y-724D01*
X155262Y-692D01*
X155327Y-562D01*
X155489Y-399D01*
X156366Y-432D01*
X156561Y-302D01*
X156626Y-172D01*
X156723Y-75D01*
X157341Y-107D01*
X157471Y-42D01*
X157536Y88D01*
X157860Y412D01*
X157893Y510D01*
X158348Y575D01*
X158445Y672D01*
X158478Y770D01*
X158607Y835D01*
X159030Y1257D01*
X158965Y1452D01*
X158770Y1582D01*
X158705Y2037D01*
X158478Y2199D01*
X157308Y3368D01*
X156723Y3304D01*
X156561Y3466D01*
X156528Y3563D01*
X156269Y3628D01*
X154450Y3563D01*
X154352Y3466D01*
X154320Y3368D01*
X154060Y3304D01*
X153670Y3368D01*
X153475Y3304D01*
X153215Y3368D01*
X153118Y3466D01*
X153053Y3596D01*
X152858Y3726D01*
X152793Y3856D01*
X152696Y3953D01*
X152566Y4018D01*
X152468Y4246D01*
X152533Y4440D01*
X152501Y5318D01*
X152630Y5513D01*
X152760Y5577D01*
X152858Y5675D01*
X152825Y6617D01*
X153020Y6812D01*
X153118Y6844D01*
X153183Y7104D01*
X153118Y7364D01*
X153183Y7624D01*
X153280Y7721D01*
X153410Y7786D01*
X153508Y8274D01*
X153735Y8436D01*
X154417Y9118D01*
X154450Y9216D01*
X154579Y9280D01*
X154677Y9378D01*
X154742Y9768D01*
X155976Y11002D01*
X156009Y11100D01*
X156171Y11132D01*
X156464Y11100D01*
X156561Y11197D01*
X156496Y11392D01*
X156399Y11489D01*
X156269Y11554D01*
X156139Y11749D01*
X155359Y11684D01*
X155197Y11457D01*
X154190Y10450D01*
X154092Y10418D01*
X154027Y9963D01*
X153930Y9865D01*
X153800Y9800D01*
X153638Y9573D01*
X153443Y9443D01*
X153378Y8988D01*
X153150Y8826D01*
X153020Y8631D01*
X152890Y8566D01*
X152793Y8404D01*
X152858Y8209D01*
X152793Y8079D01*
X152566Y7916D01*
X152468Y7429D01*
X152208Y7299D01*
X152143Y6520D01*
X152046Y6422D01*
X151916Y6357D01*
X151851Y5577D01*
X151559Y5350D01*
X151591Y4798D01*
X151429Y4570D01*
X151299Y4505D01*
X151234Y4246D01*
X151266Y3953D01*
X151234Y3856D01*
X151299Y3661D01*
X151234Y3401D01*
X151006Y3239D01*
X150941Y2849D01*
X150162Y2069D01*
X149772Y2004D01*
X149674Y1907D01*
X149642Y1809D01*
X149382Y1744D01*
X148213Y1809D01*
X148018Y2069D01*
X147823Y2134D01*
X147628Y2069D01*
X146978Y2134D01*
X146881Y2232D01*
X146816Y2362D01*
X146329Y2459D01*
X146134Y2719D01*
X146004Y2784D01*
X145809Y3044D01*
X145679Y3109D01*
X145484Y3368D01*
X145387Y3401D01*
X145322Y3531D01*
X145224Y3628D01*
X145094Y3693D01*
X144932Y3921D01*
X144737Y4051D01*
X144672Y4505D01*
X144575Y4603D01*
X144445Y4668D01*
X144347Y5155D01*
X144120Y5318D01*
X144055Y5447D01*
X143925Y5513D01*
X143763Y5675D01*
X143730Y6097D01*
X143503Y6195D01*
X143438Y6390D01*
X143503Y6584D01*
X143275Y6812D01*
X143178Y6844D01*
X143113Y7299D01*
X143015Y7396D01*
X142885Y7462D01*
X142821Y8241D01*
X142528Y8468D01*
X142496Y8891D01*
X142268Y8988D01*
X142203Y9248D01*
X142268Y9378D01*
X142041Y9605D01*
X141943Y9638D01*
X141878Y9898D01*
X141943Y10093D01*
X141878Y10352D01*
X141943Y10742D01*
X142171Y10775D01*
X142268Y10677D01*
X142333Y10223D01*
X142528Y10093D01*
X142593Y9638D01*
X142691Y9540D01*
X142821Y9476D01*
X142950Y9280D01*
X143080Y9216D01*
X143178Y9118D01*
X143243Y8663D01*
X143503Y8468D01*
X143470Y8176D01*
X143535Y8046D01*
X143665Y7981D01*
X143763Y7884D01*
X143827Y7624D01*
X143763Y7429D01*
X143827Y7169D01*
X143925Y7072D01*
X144055Y7007D01*
X144152Y6520D01*
X144250Y6422D01*
X144380Y6357D01*
X144510Y6162D01*
X144640Y6097D01*
X144737Y6000D01*
X144802Y5545D01*
X145029Y5382D01*
X145062Y5220D01*
X144997Y5090D01*
X145094Y4928D01*
X145224Y4863D01*
X145322Y4765D01*
X145387Y4311D01*
X145776Y3986D01*
X146621Y3141D01*
X146653Y3044D01*
X146913Y2979D01*
X147173Y3044D01*
X147433Y2979D01*
X147531Y2881D01*
X147596Y2751D01*
X147888Y2654D01*
X148083Y2719D01*
X149642Y2784D01*
X149740Y2881D01*
X149772Y2979D01*
X149902Y3044D01*
X150064Y3206D01*
X150097Y3304D01*
X150227Y3368D01*
X150324Y3466D01*
X150357Y3888D01*
X150487Y3953D01*
X150649Y4051D01*
X150714Y5155D01*
X150974Y5350D01*
X150941Y5902D01*
X151006Y6097D01*
X151234Y6195D01*
X151299Y6454D01*
X151234Y6909D01*
X151396Y7072D01*
X151526Y7137D01*
X151623Y7624D01*
X151721Y7721D01*
X151851Y7786D01*
X151916Y8501D01*
X152371Y8956D01*
X152468Y8988D01*
X152598Y9508D01*
X152696Y9605D01*
X152793Y9638D01*
X152858Y9768D01*
X153020Y9930D01*
X153118Y9963D01*
X153183Y10418D01*
X153280Y10515D01*
X153410Y10580D01*
X153572Y10807D01*
X153767Y10937D01*
X153800Y11360D01*
X154027Y11457D01*
X154092Y11652D01*
X153995Y11749D01*
X153865Y11814D01*
X153605Y12074D01*
X153183Y12107D01*
X153085Y12334D01*
X152825Y12399D01*
X151396Y12334D01*
X151234Y12172D01*
X151299Y11847D01*
X151396Y11749D01*
X151526Y11684D01*
X151623Y11457D01*
X151559Y11262D01*
X151526Y10840D01*
X151006Y10775D01*
X150876Y10515D01*
X150097Y10580D01*
X149902Y10775D01*
X148765Y10807D01*
X148148Y10775D01*
X147953Y10840D01*
X147758Y10775D01*
X147531Y10937D01*
X147466Y11067D01*
X147173Y11165D01*
X146913Y11100D01*
X146653Y11165D01*
X146556Y11457D01*
X146621Y11652D01*
X146719Y11749D01*
X146848Y11814D01*
X146946Y12496D01*
X146719Y12724D01*
X146621Y12756D01*
X146556Y12886D01*
X146459Y12984D01*
X146199Y13049D01*
X145971Y12886D01*
X145906Y12756D01*
X145809Y12659D01*
X145679Y12594D01*
X145484Y12334D01*
X145387Y12302D01*
X145322Y12172D01*
X145224Y12074D01*
X145029Y12009D01*
X144834Y12074D01*
X144510Y12009D01*
X144347Y11847D01*
X144315Y11749D01*
X143535Y11684D01*
X143438Y11587D01*
X143373Y11457D01*
X142626Y11424D01*
X142496Y11489D01*
X142268Y11392D01*
X142203Y11262D01*
X142106Y11165D01*
X141846Y11100D01*
X139832Y11165D01*
X139734Y11262D01*
X139670Y11392D01*
X139410Y11457D01*
X138923Y11424D01*
X138825Y11522D01*
X138760Y11652D01*
X138663Y11749D01*
X138208Y11814D01*
X138175Y12561D01*
X138273Y12659D01*
X138533Y12724D01*
X138760Y12626D01*
X138857Y12399D01*
X139312Y12334D01*
X139475Y12172D01*
X139507Y12074D01*
X139734Y12042D01*
X142431Y12074D01*
X142626Y12009D01*
X142853Y12172D01*
X142918Y12302D01*
X143015Y12399D01*
X143633Y12366D01*
X143827Y12561D01*
X143860Y12659D01*
X144120Y12724D01*
X144380Y12659D01*
X144640Y12724D01*
X144737Y12821D01*
X144802Y12951D01*
X145289Y13049D01*
X145354Y13308D01*
X145322Y14186D01*
X145387Y14315D01*
X145224Y14543D01*
X145094Y14608D01*
X144997Y14770D01*
X145062Y14965D01*
X144997Y15095D01*
X144899Y15193D01*
X144770Y15258D01*
X144640Y15452D01*
X144510Y15517D01*
X144412Y15615D01*
X144347Y15745D01*
X144120Y15907D01*
X143990Y16102D01*
X143860Y16167D01*
X143763Y16264D01*
X143698Y16395D01*
X143470Y16557D01*
X143340Y16752D01*
X143210Y16817D01*
X143048Y17044D01*
X142561Y17142D01*
X142431Y17336D01*
X142171Y17401D01*
X141976Y17336D01*
X141391Y17401D01*
X141294Y17499D01*
X141229Y17629D01*
X138240Y17694D01*
X138175Y17889D01*
X138273Y17986D01*
X138403Y18051D01*
X138663Y18311D01*
X139052Y18376D01*
X139247Y18636D01*
X140872Y18571D01*
X141034Y18408D01*
X141066Y18311D01*
X141326Y18246D01*
X141456Y18311D01*
X141781Y18636D01*
X141878Y18668D01*
X141943Y18928D01*
X141911Y19675D01*
X142041Y19870D01*
X142171Y19935D01*
X142268Y20422D01*
X142593Y20682D01*
X142626Y20780D01*
X142853Y20877D01*
X142918Y21332D01*
X143827Y22242D01*
X143860Y22339D01*
X144347Y22371D01*
X144510Y22664D01*
X145614Y22729D01*
X145809Y22989D01*
X146361Y22956D01*
X146621Y23151D01*
X146653Y23248D01*
X146913Y23313D01*
X150552Y23248D01*
X150649Y23151D01*
X150714Y23021D01*
X151006Y22924D01*
X151201Y22989D01*
X151526Y22924D01*
X151689Y22696D01*
X152143Y22631D01*
X152208Y22501D01*
X152371Y22339D01*
X152760Y22274D01*
X152858Y22176D01*
X152923Y22047D01*
X153410Y21949D01*
X153540Y21754D01*
X153995Y21689D01*
X154092Y21592D01*
X154157Y21462D01*
X154352Y21332D01*
X154417Y21202D01*
X154515Y21105D01*
X154645Y21040D01*
X154807Y20812D01*
X155002Y20682D01*
X155067Y20552D01*
X155164Y20455D01*
X155294Y20390D01*
X155457Y20163D01*
X155651Y20033D01*
X155717Y19903D01*
X155911Y19773D01*
X155976Y19513D01*
X155911Y19123D01*
X156009Y18961D01*
X156139Y18896D01*
X156236Y18798D01*
X156301Y18603D01*
X156236Y18408D01*
X156301Y17759D01*
X156399Y17661D01*
X157438Y17596D01*
X157698Y17336D01*
X157795Y17304D01*
X157763Y17077D01*
X157633Y17012D01*
X157373Y16752D01*
X157178Y16687D01*
X156983Y16752D01*
X156658Y16687D01*
X156561Y16589D01*
X156496Y16459D01*
X156009Y16362D01*
X155911Y16264D01*
X155846Y16135D01*
X155359Y16037D01*
X155164Y15777D01*
X155034Y15712D01*
X154839Y15452D01*
X154742Y15420D01*
X154677Y15290D01*
X154579Y15193D01*
X154450Y15128D01*
X154287Y14900D01*
X154092Y14770D01*
X154027Y14640D01*
X153930Y14543D01*
X153800Y14478D01*
X153638Y14251D01*
X153443Y14121D01*
X153378Y13991D01*
X153280Y13893D01*
X153150Y13828D01*
X153085Y13374D01*
X152858Y13276D01*
X152890Y12984D01*
X153410Y12919D01*
X153572Y12691D01*
X154027Y12626D01*
X154092Y12496D01*
X154190Y12399D01*
X154450Y12334D01*
X154645Y12399D01*
X155651Y12366D01*
X155879Y12399D01*
X156009Y12334D01*
X156204Y12399D01*
X156691Y12366D01*
X156886Y12496D01*
X156951Y12626D01*
X157438Y12724D01*
X157600Y12951D01*
X157990Y13016D01*
X158185Y13211D01*
X158218Y13308D01*
X158672Y13374D01*
X158770Y13471D01*
X158802Y13568D01*
X158932Y13633D01*
X159095Y13796D01*
X159062Y14088D01*
X159127Y14218D01*
X159355Y14315D01*
X159420Y14575D01*
X159355Y14835D01*
X159420Y15420D01*
X159517Y15517D01*
X159647Y15582D01*
X159679Y21917D01*
X159582Y22014D01*
X159452Y22079D01*
X159355Y22176D01*
X159387Y22794D01*
X159322Y22924D01*
X159192Y22989D01*
X159030Y23151D01*
X159062Y23443D01*
X158997Y23573D01*
X158770Y23671D01*
X158705Y24126D01*
X158607Y24223D01*
X158478Y24288D01*
X158315Y24515D01*
X158120Y24645D01*
X158055Y25100D01*
X157828Y25262D01*
X157698Y25457D01*
X157568Y25522D01*
X157471Y25750D01*
X157536Y25880D01*
X157373Y26107D01*
X157243Y26172D01*
X157113Y26367D01*
X156983Y26432D01*
X156886Y26529D01*
X156821Y26659D01*
X156594Y26822D01*
X156496Y27309D01*
X156269Y27471D01*
X156204Y27926D01*
X156074Y27991D01*
X154839Y29226D01*
X154450Y29290D01*
X154352Y29388D01*
X154320Y29485D01*
X154060Y29550D01*
X153670Y29485D01*
X153443Y29648D01*
X153378Y29778D01*
X153150Y29940D01*
X153020Y30135D01*
X151916Y30070D01*
X151851Y29290D01*
X151559Y29063D01*
X151494Y28608D01*
X151006Y28511D01*
X150844Y28283D01*
X149252Y28251D01*
X149090Y28413D01*
X149025Y28543D01*
X148538Y28641D01*
X148440Y28738D01*
X148375Y28868D01*
X147888Y28966D01*
X147823Y31045D01*
X147791Y31142D01*
X147953Y31369D01*
X148083Y31434D01*
X148180Y31532D01*
X148115Y31662D01*
X147888Y31824D01*
X147693Y32019D01*
D02*
G37*
G36*
X150227Y39815D02*
X150032Y39750D01*
X149869Y39523D01*
X149674Y39328D01*
X149740Y38743D01*
X149512Y38516D01*
X149415Y38483D01*
X149350Y38223D01*
X149415Y38028D01*
X149350Y36794D01*
X149090Y36534D01*
X149025Y34585D01*
X148927Y34488D01*
X148798Y34423D01*
X148765Y29648D01*
X148862Y29550D01*
X148992Y29485D01*
X149090Y29388D01*
X149155Y29258D01*
X149837Y29226D01*
X149902D01*
X150909Y29258D01*
X150974Y29518D01*
X150941Y30265D01*
X151071Y30460D01*
X151201Y30525D01*
X151299Y30622D01*
X151266Y31045D01*
X151299Y31207D01*
X151234Y31402D01*
X151299Y31597D01*
X151461Y31759D01*
X151559Y31792D01*
X151623Y32052D01*
X151559Y32311D01*
X151591Y34618D01*
X151461Y34813D01*
X151331Y34878D01*
X151234Y35170D01*
X151299Y35430D01*
X151234Y36924D01*
X151136Y37021D01*
X151006Y37086D01*
X150909Y37314D01*
X150974Y37509D01*
X150909Y38483D01*
X150811Y38581D01*
X150681Y38646D01*
X150617Y39425D01*
X150389Y39588D01*
X150324Y39718D01*
X150227Y39815D01*
D02*
G37*
G36*
X148862Y22664D02*
X148765Y22566D01*
X148700Y22436D01*
X148602Y22339D01*
X146231Y22371D01*
X146004Y22274D01*
X145842Y22047D01*
X145484Y22014D01*
X145354Y22079D01*
X145224Y22014D01*
X145029Y22079D01*
X144834Y22014D01*
X144737Y21917D01*
X144672Y21787D01*
X144185Y21689D01*
X144087Y21592D01*
X144022Y21462D01*
X143795Y21299D01*
X143665Y21105D01*
X143535Y21040D01*
X143438Y20942D01*
X143470Y20650D01*
X143405Y20520D01*
X143275Y20455D01*
X143113Y20292D01*
X143080Y20195D01*
X142950Y20130D01*
X142853Y20033D01*
X142788Y19318D01*
X142691Y19220D01*
X142561Y19156D01*
X142528Y18149D01*
X143015Y17661D01*
X143405Y17726D01*
X143600Y17986D01*
X144055Y18051D01*
X144152Y18538D01*
X144250Y18636D01*
X144380Y18701D01*
X144510Y18896D01*
X144640Y18961D01*
X144737Y19058D01*
X144802Y19188D01*
X144997Y19318D01*
X145062Y19448D01*
X145159Y19545D01*
X145289Y19610D01*
X145452Y19838D01*
X145647Y19968D01*
X145712Y20098D01*
X145809Y20195D01*
X146101Y20163D01*
X146231Y20227D01*
X146296Y20358D01*
X146394Y20455D01*
X146653Y20520D01*
X146848Y20455D01*
X147758Y20520D01*
X147855Y20617D01*
X147920Y20747D01*
X150227Y20780D01*
X150324Y20682D01*
X150389Y20552D01*
X150487Y20455D01*
X151104Y20487D01*
X151234Y20422D01*
X151331Y20195D01*
X151786Y20130D01*
X154092Y17824D01*
X154125Y17401D01*
X154352Y17304D01*
X154417Y17109D01*
X154352Y16914D01*
X154677Y16589D01*
X154742Y16459D01*
X154904Y16427D01*
X155067Y16589D01*
X155132Y16719D01*
X155489Y17077D01*
X155587Y17109D01*
X155651Y17369D01*
Y17889D01*
Y17954D01*
X155587Y18214D01*
X155489Y18311D01*
X155359Y18376D01*
X155294Y19156D01*
X155002Y19383D01*
X154969Y19805D01*
X154839Y19870D01*
X154027Y20682D01*
X153995Y20780D01*
X153540Y20845D01*
X153443Y20942D01*
X153378Y21072D01*
X152890Y21170D01*
X152793Y21267D01*
X152728Y21397D01*
X152241Y21494D01*
X152078Y21722D01*
X151623Y21787D01*
X151559Y21917D01*
X151461Y22014D01*
X151006Y22079D01*
X150876Y22339D01*
X149187Y22404D01*
X149090Y22501D01*
X149025Y22631D01*
X148862Y22664D01*
D02*
G37*
G36*
X150162Y19870D02*
X149999Y19708D01*
X149934Y19578D01*
X149740Y19448D01*
X149674Y17109D01*
X149447Y17077D01*
X149350Y17174D01*
X149382Y19740D01*
X149252Y19870D01*
X147888Y19805D01*
X147823Y17336D01*
X147791Y17304D01*
X147855Y17109D01*
X147791Y16784D01*
X147628Y16752D01*
X147466Y16914D01*
X147401Y17044D01*
X147206Y17174D01*
X147141Y19188D01*
X146913Y19351D01*
X146783Y19545D01*
X146004Y19480D01*
X145842Y19253D01*
X145647Y19123D01*
X145712Y18084D01*
X145971Y17824D01*
X146036Y17434D01*
X146783Y16687D01*
X146881Y16654D01*
X146946Y16199D01*
X147173Y16037D01*
X147206Y15875D01*
X147108Y15777D01*
X146719Y15842D01*
X146134Y16427D01*
X146004Y16492D01*
X145906Y16979D01*
X145809Y17077D01*
X145679Y17142D01*
X145614Y17531D01*
X145549Y17661D01*
X145419Y17726D01*
X145224Y17986D01*
X144445Y17921D01*
X144412Y16849D01*
X144510Y16752D01*
X144640Y16687D01*
X144737Y16589D01*
X144802Y16459D01*
X145029Y16297D01*
X145159Y16102D01*
X145289Y16037D01*
X145387Y15940D01*
X145419Y15842D01*
X145549Y15777D01*
X145647Y15680D01*
X145712Y15550D01*
X145939Y15387D01*
X146004Y14608D01*
X146296Y14445D01*
X146361Y13991D01*
X146459Y13893D01*
X146556Y13861D01*
X146621Y13731D01*
X146783Y13568D01*
X146881Y13536D01*
X146946Y13406D01*
X147108Y13243D01*
X147206Y13211D01*
X147271Y13081D01*
X147368Y12984D01*
X147498Y12919D01*
X147531Y12237D01*
X147271Y11977D01*
X147303Y11749D01*
X147433Y11684D01*
X147693Y11424D01*
X148083Y11360D01*
X148278Y11165D01*
X148538Y11100D01*
X148700Y11197D01*
X148765Y11327D01*
X148862Y11424D01*
X149057Y11360D01*
X149155Y11262D01*
X149187Y11165D01*
X149382Y11100D01*
X149577Y11165D01*
X150194Y11132D01*
X150324Y11262D01*
X150357Y11489D01*
X150292Y11684D01*
X150162Y11749D01*
X149999Y11912D01*
X150064Y12302D01*
X150324Y12496D01*
X150389Y12626D01*
X150681Y12724D01*
X150876Y12659D01*
X151721Y12724D01*
X151851Y12789D01*
X151916Y13179D01*
X153183Y14445D01*
X153118Y14705D01*
X153280Y14868D01*
X153410Y14933D01*
X153508Y15420D01*
X153605Y15517D01*
X153735Y15582D01*
X153767Y16264D01*
X153605Y16427D01*
X153215Y16362D01*
X153118Y16264D01*
X153085Y16167D01*
X152955Y16102D01*
X152793Y15940D01*
X152825Y15647D01*
X152760Y15517D01*
X152533Y15420D01*
X152468Y14965D01*
X152046Y14543D01*
X151916Y14478D01*
X151753Y14251D01*
X151461Y14218D01*
X151299Y14315D01*
X151234Y14575D01*
X151299Y14770D01*
X151396Y14868D01*
X151461D01*
X151559Y14965D01*
X151623Y15095D01*
X151721Y15193D01*
X151851Y15258D01*
X151948Y15745D01*
X152176Y15907D01*
X152273Y16395D01*
X152501Y16557D01*
X152566Y16687D01*
X152696Y16752D01*
X152858Y16914D01*
X152793Y17499D01*
X152858Y17694D01*
X152793Y17889D01*
X152696Y17986D01*
X152566Y18051D01*
X152371Y18311D01*
X151981Y18246D01*
X151559Y17824D01*
X151591Y17271D01*
X151429Y17044D01*
X151299Y16979D01*
X151234Y16719D01*
X151299Y16330D01*
X151136Y16102D01*
X150681Y16167D01*
X150649Y17239D01*
X150747Y17336D01*
X150876Y17401D01*
X150974Y17499D01*
X151039Y17954D01*
X151266Y18116D01*
X151299Y18408D01*
X151234Y18603D01*
X151299Y18863D01*
X151234Y18993D01*
X151299Y19188D01*
X151234Y19448D01*
X151136Y19545D01*
X150681Y19610D01*
X150519Y19838D01*
X150162Y19870D01*
D02*
G37*
%LPD*%
G36*
X144997Y26659D02*
X145062Y26399D01*
Y26204D01*
Y26140D01*
X144997Y25880D01*
X144899Y25782D01*
X144185Y25847D01*
X143925Y26107D01*
X143795Y26172D01*
X143763Y26270D01*
X143925Y26432D01*
X144055Y26497D01*
X144185Y26692D01*
X144445Y26757D01*
X144640Y26692D01*
X144834Y26757D01*
X144997Y26659D01*
D02*
G37*
G36*
X151234Y26075D02*
X151169Y25815D01*
X151071Y25717D01*
X150974Y25685D01*
X150941Y25522D01*
X150974Y25295D01*
X150811Y25133D01*
X150681Y25068D01*
X150552Y24873D01*
X150292Y24808D01*
X150064Y24905D01*
X149999Y25035D01*
X149967Y25068D01*
X149934Y25100D01*
X149837Y25197D01*
X149740Y25230D01*
X149674Y25490D01*
X149740Y25685D01*
X149674Y25880D01*
X149837Y26107D01*
X150227Y26042D01*
X150324Y25945D01*
X150389Y25815D01*
X150552Y25782D01*
X150649Y25880D01*
X150714Y26010D01*
X150811Y26107D01*
X151234Y26075D01*
D02*
G37*
G36*
X155392Y26529D02*
X155457Y26399D01*
X155651Y26270D01*
X155717Y26140D01*
X155814Y26042D01*
X155911Y26010D01*
X155976Y25750D01*
X155879Y25522D01*
X155749Y25457D01*
X155587Y25295D01*
Y25230D01*
X155489Y25133D01*
X155099Y25197D01*
X155002Y25295D01*
X154937Y25425D01*
X154709Y25587D01*
X154677Y26270D01*
X154774Y26367D01*
X154904Y26432D01*
X155067Y26659D01*
X155229Y26692D01*
X155392Y26529D01*
D02*
G37*
D10*
X3559Y204827D02*
G03*
X3559Y204827I-394J0D01*
G01*
X48098Y107827D02*
G03*
X48098Y107827I-394J0D01*
G01*
X47941Y53327D02*
G03*
X47941Y53327I-394J0D01*
G01*
X79134Y135827D02*
G03*
X79134Y135827I-394J0D01*
G01*
X140539Y152652D02*
G03*
X140539Y152652I-394J0D01*
G01*
X79134Y177165D02*
G03*
X79134Y177165I-394J0D01*
G01*
X86134Y63339D02*
X107158D01*
X86134Y52315D02*
X107158D01*
X86134D02*
Y63339D01*
X107158Y52315D02*
Y63339D01*
X-1843Y143815D02*
Y164839D01*
X-12866Y143815D02*
Y164839D01*
X-1843D01*
X-12866Y143815D02*
X-1843D01*
X25984Y229921D02*
X47008D01*
X25984Y218898D02*
X47008D01*
X25984D02*
Y229921D01*
X47008Y218898D02*
Y229921D01*
X175134Y194315D02*
Y215339D01*
X186158Y194315D02*
Y215339D01*
X175134Y194315D02*
X186158D01*
X175134Y215339D02*
X186158D01*
X25984Y238583D02*
X47008D01*
X25984Y249606D02*
X47008D01*
Y238583D02*
Y249606D01*
X25984Y238583D02*
Y249606D01*
X176079Y82268D02*
Y183055D01*
X187102Y82268D02*
Y183055D01*
X176079Y82268D02*
X187102D01*
X176079Y183055D02*
X187102D01*
X130220Y205882D02*
X134945D01*
X127559Y71260D02*
X132283D01*
X138721Y205925D02*
X143445D01*
D11*
X44752Y107827D02*
G03*
X44752Y107827I-24606J0D01*
G01*
X44594Y53327D02*
G03*
X44594Y53327I-24606J0D01*
G01*
X103347Y108268D02*
G03*
X103347Y108268I-24606J0D01*
G01*
Y204724D02*
G03*
X103347Y204724I-24606J0D01*
G01*
X77402Y-15843D02*
X112598D01*
X77402Y-2181D02*
Y6480D01*
X112598Y-2181D02*
Y6480D01*
X5843Y213213D02*
X45370D01*
X5843Y136441D02*
Y213213D01*
Y136441D02*
X45370D01*
Y213213D01*
X39756Y14315D02*
X53535D01*
X39756Y25339D02*
X53535D01*
X39661Y315D02*
X53441D01*
X39661Y11339D02*
X53441D01*
X75756Y142315D02*
X89535D01*
X75756Y153339D02*
X89535D01*
X75756Y173339D02*
X89535D01*
X75756Y162315D02*
X89535D01*
X139024Y133878D02*
Y149626D01*
X119142Y133878D02*
Y149626D01*
D12*
X140043Y46055D02*
X161543D01*
X140043D02*
Y51555D01*
Y66555D02*
Y72055D01*
X161543D01*
X148732Y228783D02*
Y250284D01*
X143232Y228783D02*
X148732D01*
X122732D02*
X128232D01*
X122732D02*
Y250284D01*
X10904Y226471D02*
X9905Y227470D01*
X7905D01*
X6905Y226471D01*
Y222472D01*
X7905Y221472D01*
X9905D01*
X10904Y222472D01*
Y224471D01*
X8905D01*
X12904Y221472D02*
Y227470D01*
X16902Y221472D01*
Y227470D01*
X18902D02*
Y221472D01*
X21901D01*
X22900Y222472D01*
Y226471D01*
X21901Y227470D01*
X18902D01*
X16810Y247155D02*
X12811D01*
Y244157D01*
X14810Y245156D01*
X15810D01*
X16810Y244157D01*
Y242157D01*
X15810Y241158D01*
X13811D01*
X12811Y242157D01*
X18809Y247155D02*
Y243157D01*
X20808Y241158D01*
X22808Y243157D01*
Y247155D01*
X52798Y246156D02*
X51798Y247155D01*
X49799D01*
X48799Y246156D01*
Y242157D01*
X49799Y241158D01*
X51798D01*
X52798Y242157D01*
Y244157D01*
X50799D01*
X54797Y241158D02*
Y247155D01*
X58796Y241158D01*
Y247155D01*
X60795D02*
Y241158D01*
X63794D01*
X64794Y242157D01*
Y246156D01*
X63794Y247155D01*
X60795D01*
X-7936Y121079D02*
Y125077D01*
X-9935Y123078D02*
X-5937D01*
X-4937Y127077D02*
Y129076D01*
Y128077D01*
X-10935D01*
X-9935Y127077D01*
X-10935Y136074D02*
Y132075D01*
X-7936D01*
X-8936Y134074D01*
Y135074D01*
X-7936Y136074D01*
X-5937D01*
X-4937Y135074D01*
Y133075D01*
X-5937Y132075D01*
X-7936Y174062D02*
Y178060D01*
X-4937Y180060D02*
Y182059D01*
Y181059D01*
X-10935D01*
X-9935Y180060D01*
X-10935Y189057D02*
Y185058D01*
X-7936D01*
X-8936Y187057D01*
Y188057D01*
X-7936Y189057D01*
X-5937D01*
X-4937Y188057D01*
Y186058D01*
X-5937Y185058D01*
X144577Y93520D02*
X148575D01*
X150575Y95519D01*
X148575Y97518D01*
X144577D01*
Y102517D02*
Y100517D01*
X145576Y99518D01*
X149575D01*
X150575Y100517D01*
Y102517D01*
X149575Y103516D01*
X145576D01*
X144577Y102517D01*
Y105516D02*
X150575D01*
Y109514D01*
X144577Y111514D02*
X149575D01*
X150575Y112513D01*
Y114513D01*
X149575Y115513D01*
X144577D01*
X150575Y117512D02*
X144577D01*
X146576Y119511D01*
X144577Y121511D01*
X150575D01*
X144577Y127509D02*
Y123510D01*
X150575D01*
Y127509D01*
X147576Y123510D02*
Y125509D01*
X145576Y139505D02*
X144577Y138505D01*
Y136506D01*
X145576Y135506D01*
X149575D01*
X150575Y136506D01*
Y138505D01*
X149575Y139505D01*
X144577Y144503D02*
Y142504D01*
X145576Y141504D01*
X149575D01*
X150575Y142504D01*
Y144503D01*
X149575Y145503D01*
X145576D01*
X144577Y144503D01*
X150575Y147502D02*
X144577D01*
X150575Y151501D01*
X144577D01*
Y153500D02*
Y157499D01*
Y155500D01*
X150575D01*
Y159498D02*
X144577D01*
Y162497D01*
X145576Y163497D01*
X147576D01*
X148575Y162497D01*
Y159498D01*
Y161498D02*
X150575Y163497D01*
X144577Y168495D02*
Y166496D01*
X145576Y165496D01*
X149575D01*
X150575Y166496D01*
Y168495D01*
X149575Y169495D01*
X145576D01*
X144577Y168495D01*
Y171494D02*
X150575D01*
Y175493D01*
X154419Y229346D02*
Y231346D01*
Y230346D01*
X160417D01*
Y229346D01*
Y231346D01*
Y234345D02*
X154419D01*
X160417Y238344D01*
X154419D01*
X160417Y240343D02*
X154419D01*
Y243342D01*
X155419Y244342D01*
X157418D01*
X158418Y243342D01*
Y240343D01*
X154419Y246341D02*
X159418D01*
X160417Y247341D01*
Y249340D01*
X159418Y250340D01*
X154419D01*
Y252339D02*
Y256338D01*
Y254338D01*
X160417D01*
X73835Y71959D02*
Y66960D01*
X74834Y65961D01*
X76834D01*
X77833Y66960D01*
Y71959D01*
X83831Y70959D02*
X82832Y71959D01*
X80832D01*
X79833Y70959D01*
Y69959D01*
X80832Y68960D01*
X82832D01*
X83831Y67960D01*
Y66960D01*
X82832Y65961D01*
X80832D01*
X79833Y66960D01*
X85831Y71959D02*
Y65961D01*
X88830D01*
X89829Y66960D01*
Y67960D01*
X88830Y68960D01*
X85831D01*
X88830D01*
X89829Y69959D01*
Y70959D01*
X88830Y71959D01*
X85831D01*
X97827D02*
Y65961D01*
X100826D01*
X101826Y66960D01*
Y70959D01*
X100826Y71959D01*
X97827D01*
X103825Y65961D02*
Y69959D01*
X105824Y71959D01*
X107824Y69959D01*
Y65961D01*
Y68960D01*
X103825D01*
X109823Y71959D02*
X113822D01*
X111822D01*
Y65961D01*
X115821D02*
Y69959D01*
X117820Y71959D01*
X119820Y69959D01*
Y65961D01*
Y68960D01*
X115821D01*
X178041Y41401D02*
Y39401D01*
X179041Y38402D01*
X183040D01*
X184039Y39401D01*
Y41401D01*
X183040Y42400D01*
X179041D01*
X178041Y41401D01*
Y44400D02*
X183040D01*
X184039Y45399D01*
Y47399D01*
X183040Y48398D01*
X178041D01*
Y50398D02*
Y54396D01*
Y52397D01*
X184039D01*
Y56396D02*
X178041D01*
Y59395D01*
X179041Y60394D01*
X181040D01*
X182040Y59395D01*
Y56396D01*
X178041Y62394D02*
X183040D01*
X184039Y63393D01*
Y65393D01*
X183040Y66392D01*
X178041D01*
Y68392D02*
Y72391D01*
Y70391D01*
X184039D01*
X63992Y252999D02*
Y258997D01*
X66991D01*
X67991Y257998D01*
Y255998D01*
X66991Y254999D01*
X63992D01*
X69990Y256998D02*
Y252999D01*
Y254999D01*
X70990Y255998D01*
X71990Y256998D01*
X72989D01*
X78987Y252999D02*
X76988D01*
X75988Y253999D01*
Y255998D01*
X76988Y256998D01*
X78987D01*
X79987Y255998D01*
Y254999D01*
X75988D01*
X82986Y256998D02*
X84985D01*
X85985Y255998D01*
Y252999D01*
X82986D01*
X81986Y253999D01*
X82986Y254999D01*
X85985D01*
X87984Y252999D02*
Y256998D01*
X88984D01*
X89984Y255998D01*
Y252999D01*
Y255998D01*
X90983Y256998D01*
X91983Y255998D01*
Y252999D01*
X93982Y251000D02*
Y256998D01*
X96982D01*
X97981Y255998D01*
Y253999D01*
X96982Y252999D01*
X93982D01*
X105979Y258997D02*
Y254999D01*
X107978Y252999D01*
X109977Y254999D01*
Y258997D01*
X111977Y252999D02*
X113976D01*
X112976D01*
Y258997D01*
X111977Y257998D01*
D13*
X77149Y23449D02*
X76150D01*
X76649D01*
Y20950D01*
X76150Y20450D01*
X75650D01*
X75150Y20950D01*
X78149Y20450D02*
X79149D01*
X78649D01*
Y23449D01*
X78149Y22949D01*
X50647Y150327D02*
Y153326D01*
X52147D01*
X52646Y152826D01*
Y151827D01*
X52147Y151327D01*
X50647D01*
X51647D02*
X52646Y150327D01*
X55645D02*
X53646D01*
X55645Y152327D01*
Y152826D01*
X55146Y153326D01*
X54146D01*
X53646Y152826D01*
X56645D02*
X57145Y153326D01*
X58145D01*
X58644Y152826D01*
Y152327D01*
X58145Y151827D01*
X57645D01*
X58145D01*
X58644Y151327D01*
Y150827D01*
X58145Y150327D01*
X57145D01*
X56645Y150827D01*
X97396Y168826D02*
X96896Y169326D01*
X95897D01*
X95397Y168826D01*
Y166827D01*
X95897Y166327D01*
X96896D01*
X97396Y166827D01*
X98396Y166327D02*
X99395D01*
X98896D01*
Y169326D01*
X98396Y168826D01*
X100895Y166327D02*
X101895D01*
X101395D01*
Y169326D01*
X100895Y168826D01*
X96896Y148826D02*
X96396Y149326D01*
X95397D01*
X94897Y148826D01*
Y146827D01*
X95397Y146327D01*
X96396D01*
X96896Y146827D01*
X97896Y146327D02*
X98896D01*
X98396D01*
Y149326D01*
X97896Y148826D01*
X100395D02*
X100895Y149326D01*
X101895D01*
X102394Y148826D01*
Y146827D01*
X101895Y146327D01*
X100895D01*
X100395Y146827D01*
Y148826D01*
X62051Y6826D02*
X61551Y7326D01*
X60552D01*
X60052Y6826D01*
Y4827D01*
X60552Y4327D01*
X61551D01*
X62051Y4827D01*
X63051D02*
X63551Y4327D01*
X64551D01*
X65050Y4827D01*
Y6826D01*
X64551Y7326D01*
X63551D01*
X63051Y6826D01*
Y6327D01*
X63551Y5827D01*
X65050D01*
X62146Y20826D02*
X61646Y21326D01*
X60646D01*
X60146Y20826D01*
Y18827D01*
X60646Y18327D01*
X61646D01*
X62146Y18827D01*
X63146Y20826D02*
X63645Y21326D01*
X64645D01*
X65145Y20826D01*
Y20327D01*
X64645Y19827D01*
X65145Y19327D01*
Y18827D01*
X64645Y18327D01*
X63645D01*
X63146Y18827D01*
Y19327D01*
X63645Y19827D01*
X63146Y20327D01*
Y20826D01*
X63645Y19827D02*
X64645D01*
X118983Y162207D02*
Y159708D01*
X119483Y159208D01*
X120482D01*
X120982Y159708D01*
Y162207D01*
X121982Y159208D02*
X122981D01*
X122482D01*
Y162207D01*
X121982Y161707D01*
X54647Y168327D02*
Y171326D01*
X56147D01*
X56646Y170826D01*
Y169827D01*
X56147Y169327D01*
X54647D01*
X55647D02*
X56646Y168327D01*
X59645D02*
X57646D01*
X59645Y170327D01*
Y170826D01*
X59145Y171326D01*
X58146D01*
X57646Y170826D01*
X62644Y168327D02*
X60645D01*
X62644Y170327D01*
Y170826D01*
X62145Y171326D01*
X61145D01*
X60645Y170826D01*
X159147Y214327D02*
Y217326D01*
X160646D01*
X161146Y216827D01*
Y215827D01*
X160646Y215327D01*
X159147D01*
X160146D02*
X161146Y214327D01*
X164145D02*
X162146D01*
X164145Y216327D01*
Y216827D01*
X163645Y217326D01*
X162646D01*
X162146Y216827D01*
X165145Y214327D02*
X166145D01*
X165645D01*
Y217326D01*
X165145Y216827D01*
X152647Y190327D02*
Y193326D01*
X154147D01*
X154646Y192826D01*
Y191827D01*
X154147Y191327D01*
X152647D01*
X153647D02*
X154646Y190327D01*
X157645D02*
X155646D01*
X157645Y192327D01*
Y192826D01*
X157146Y193326D01*
X156146D01*
X155646Y192826D01*
X158645D02*
X159145Y193326D01*
X160145D01*
X160644Y192826D01*
Y190827D01*
X160145Y190327D01*
X159145D01*
X158645Y190827D01*
Y192826D01*
X148460Y214272D02*
Y217271D01*
X149959D01*
X150459Y216771D01*
Y215772D01*
X149959Y215272D01*
X148460D01*
X149460D02*
X150459Y214272D01*
X151459D02*
X152459D01*
X151959D01*
Y217271D01*
X151459Y216771D01*
X153958Y214772D02*
X154458Y214272D01*
X155458D01*
X155957Y214772D01*
Y216771D01*
X155458Y217271D01*
X154458D01*
X153958Y216771D01*
Y216271D01*
X154458Y215772D01*
X155957D01*
X114897Y190327D02*
Y193326D01*
X116396D01*
X116896Y192826D01*
Y191827D01*
X116396Y191327D01*
X114897D01*
X115897D02*
X116896Y190327D01*
X117896D02*
X118896D01*
X118396D01*
Y193326D01*
X117896Y192826D01*
X120395D02*
X120895Y193326D01*
X121895D01*
X122395Y192826D01*
Y192327D01*
X121895Y191827D01*
X122395Y191327D01*
Y190827D01*
X121895Y190327D01*
X120895D01*
X120395Y190827D01*
Y191327D01*
X120895Y191827D01*
X120395Y192327D01*
Y192826D01*
X120895Y191827D02*
X121895D01*
X118897Y214327D02*
Y217326D01*
X120396D01*
X120896Y216827D01*
Y215827D01*
X120396Y215327D01*
X118897D01*
X119897D02*
X120896Y214327D01*
X121896D02*
X122896D01*
X122396D01*
Y217326D01*
X121896Y216827D01*
X124395Y217326D02*
X126394D01*
Y216827D01*
X124395Y214827D01*
Y214327D01*
X108897D02*
Y217326D01*
X110396D01*
X110896Y216827D01*
Y215827D01*
X110396Y215327D01*
X108897D01*
X109897D02*
X110896Y214327D01*
X111896D02*
X112896D01*
X112396D01*
Y217326D01*
X111896Y216827D01*
X116394Y217326D02*
X115395Y216827D01*
X114395Y215827D01*
Y214827D01*
X114895Y214327D01*
X115895D01*
X116394Y214827D01*
Y215327D01*
X115895Y215827D01*
X114395D01*
X54897Y138327D02*
Y141326D01*
X56396D01*
X56896Y140826D01*
Y139827D01*
X56396Y139327D01*
X54897D01*
X55897D02*
X56896Y138327D01*
X57896D02*
X58896D01*
X58396D01*
Y141326D01*
X57896Y140826D01*
X62394Y141326D02*
X60395D01*
Y139827D01*
X61395Y140327D01*
X61895D01*
X62394Y139827D01*
Y138827D01*
X61895Y138327D01*
X60895D01*
X60395Y138827D01*
X167511Y89052D02*
Y92051D01*
X169011D01*
X169510Y91551D01*
Y90551D01*
X169011Y90051D01*
X167511D01*
X168511D02*
X169510Y89052D01*
X170510D02*
X171510D01*
X171010D01*
Y92051D01*
X170510Y91551D01*
X174509Y89052D02*
Y92051D01*
X173009Y90551D01*
X175009D01*
X167511Y98894D02*
Y101893D01*
X169011D01*
X169510Y101393D01*
Y100394D01*
X169011Y99894D01*
X167511D01*
X168511D02*
X169510Y98894D01*
X170510D02*
X171510D01*
X171010D01*
Y101893D01*
X170510Y101393D01*
X173009D02*
X173509Y101893D01*
X174509D01*
X175009Y101393D01*
Y100893D01*
X174509Y100394D01*
X174009D01*
X174509D01*
X175009Y99894D01*
Y99394D01*
X174509Y98894D01*
X173509D01*
X173009Y99394D01*
X167511Y108737D02*
Y111736D01*
X169011D01*
X169510Y111236D01*
Y110236D01*
X169011Y109736D01*
X167511D01*
X168511D02*
X169510Y108737D01*
X170510D02*
X171510D01*
X171010D01*
Y111736D01*
X170510Y111236D01*
X175009Y108737D02*
X173009D01*
X175009Y110736D01*
Y111236D01*
X174509Y111736D01*
X173509D01*
X173009Y111236D01*
X168011Y118579D02*
Y121578D01*
X169510D01*
X170010Y121078D01*
Y120079D01*
X169510Y119579D01*
X168011D01*
X169011D02*
X170010Y118579D01*
X171010D02*
X172010D01*
X171510D01*
Y121578D01*
X171010Y121078D01*
X173509Y118579D02*
X174509D01*
X174009D01*
Y121578D01*
X173509Y121078D01*
X167511Y128422D02*
Y131421D01*
X169011D01*
X169510Y130921D01*
Y129921D01*
X169011Y129421D01*
X167511D01*
X168511D02*
X169510Y128422D01*
X170510D02*
X171510D01*
X171010D01*
Y131421D01*
X170510Y130921D01*
X173009D02*
X173509Y131421D01*
X174509D01*
X175009Y130921D01*
Y128922D01*
X174509Y128422D01*
X173509D01*
X173009Y128922D01*
Y130921D01*
X168761Y138264D02*
Y141263D01*
X170260D01*
X170760Y140763D01*
Y139764D01*
X170260Y139264D01*
X168761D01*
X169760D02*
X170760Y138264D01*
X171760Y138764D02*
X172259Y138264D01*
X173259D01*
X173759Y138764D01*
Y140763D01*
X173259Y141263D01*
X172259D01*
X171760Y140763D01*
Y140264D01*
X172259Y139764D01*
X173759D01*
X168761Y148107D02*
Y151106D01*
X170260D01*
X170760Y150606D01*
Y149606D01*
X170260Y149107D01*
X168761D01*
X169760D02*
X170760Y148107D01*
X171760Y150606D02*
X172259Y151106D01*
X173259D01*
X173759Y150606D01*
Y150106D01*
X173259Y149606D01*
X173759Y149107D01*
Y148607D01*
X173259Y148107D01*
X172259D01*
X171760Y148607D01*
Y149107D01*
X172259Y149606D01*
X171760Y150106D01*
Y150606D01*
X172259Y149606D02*
X173259D01*
X168761Y157949D02*
Y160948D01*
X170260D01*
X170760Y160449D01*
Y159449D01*
X170260Y158949D01*
X168761D01*
X169760D02*
X170760Y157949D01*
X171760Y160948D02*
X173759D01*
Y160449D01*
X171760Y158449D01*
Y157949D01*
X168761Y167792D02*
Y170791D01*
X170260D01*
X170760Y170291D01*
Y169291D01*
X170260Y168791D01*
X168761D01*
X169760D02*
X170760Y167792D01*
X173759Y170791D02*
X172759Y170291D01*
X171760Y169291D01*
Y168292D01*
X172259Y167792D01*
X173259D01*
X173759Y168292D01*
Y168791D01*
X173259Y169291D01*
X171760D01*
X168761Y177634D02*
Y180633D01*
X170260D01*
X170760Y180133D01*
Y179134D01*
X170260Y178634D01*
X168761D01*
X169760D02*
X170760Y177634D01*
X173759Y180633D02*
X171760D01*
Y179134D01*
X172759Y179634D01*
X173259D01*
X173759Y179134D01*
Y178134D01*
X173259Y177634D01*
X172259D01*
X171760Y178134D01*
X85145Y42828D02*
X82146D01*
Y44327D01*
X82646Y44827D01*
X83646D01*
X84145Y44327D01*
Y42828D01*
Y43827D02*
X85145Y44827D01*
Y47326D02*
X82146D01*
X83646Y45827D01*
Y47826D01*
X111145Y42828D02*
X108146D01*
Y44327D01*
X108646Y44827D01*
X109646D01*
X110145Y44327D01*
Y42828D01*
Y43827D02*
X111145Y44827D01*
X108646Y45827D02*
X108146Y46326D01*
Y47326D01*
X108646Y47826D01*
X109146D01*
X109646Y47326D01*
Y46826D01*
Y47326D01*
X110145Y47826D01*
X110645D01*
X111145Y47326D01*
Y46326D01*
X110645Y45827D01*
X91645Y42828D02*
X88646D01*
Y44327D01*
X89146Y44827D01*
X90146D01*
X90645Y44327D01*
Y42828D01*
Y43827D02*
X91645Y44827D01*
Y47826D02*
Y45827D01*
X89646Y47826D01*
X89146D01*
X88646Y47326D01*
Y46327D01*
X89146Y45827D01*
X104645Y42928D02*
X101646D01*
Y44427D01*
X102146Y44927D01*
X103146D01*
X103646Y44427D01*
Y42928D01*
Y43927D02*
X104645Y44927D01*
Y45927D02*
Y46927D01*
Y46427D01*
X101646D01*
X102146Y45927D01*
X-5467Y209130D02*
Y212129D01*
X-3968D01*
X-3468Y211630D01*
Y210630D01*
X-3968Y210130D01*
X-5467D01*
X-469Y211630D02*
X-969Y212129D01*
X-1969D01*
X-2468Y211630D01*
Y211130D01*
X-1969Y210630D01*
X-969D01*
X-469Y210130D01*
Y209630D01*
X-969Y209130D01*
X-1969D01*
X-2468Y209630D01*
X531Y209130D02*
X1530D01*
X1030D01*
Y212129D01*
X531Y211630D01*
X176491Y186243D02*
Y189242D01*
X177990D01*
X178490Y188742D01*
Y187743D01*
X177990Y187243D01*
X176491D01*
X181489Y189242D02*
X180489Y188742D01*
X179490Y187743D01*
Y186743D01*
X179989Y186243D01*
X180989D01*
X181489Y186743D01*
Y187243D01*
X180989Y187743D01*
X179490D01*
X26428Y252827D02*
Y255826D01*
X27927D01*
X28427Y255326D01*
Y254326D01*
X27927Y253826D01*
X26428D01*
X31426Y255826D02*
X29427D01*
Y254326D01*
X30426Y254826D01*
X30926D01*
X31426Y254326D01*
Y253327D01*
X30926Y252827D01*
X29926D01*
X29427Y253327D01*
X175546Y218527D02*
Y221526D01*
X177045D01*
X177545Y221026D01*
Y220026D01*
X177045Y219527D01*
X175546D01*
X180044Y218527D02*
Y221526D01*
X178545Y220026D01*
X180544D01*
X74273Y55587D02*
Y58586D01*
X75772D01*
X76272Y58086D01*
Y57087D01*
X75772Y56587D01*
X74273D01*
X77271Y58086D02*
X77771Y58586D01*
X78771D01*
X79271Y58086D01*
Y57586D01*
X78771Y57087D01*
X78271D01*
X78771D01*
X79271Y56587D01*
Y56087D01*
X78771Y55587D01*
X77771D01*
X77271Y56087D01*
X26396Y233109D02*
Y236108D01*
X27896D01*
X28395Y235609D01*
Y234609D01*
X27896Y234109D01*
X26396D01*
X31394Y233109D02*
X29395D01*
X31394Y235109D01*
Y235609D01*
X30895Y236108D01*
X29895D01*
X29395Y235609D01*
X-12504Y168077D02*
Y171076D01*
X-11005D01*
X-10505Y170576D01*
Y169576D01*
X-11005Y169076D01*
X-12504D01*
X-9505Y168077D02*
X-8506D01*
X-9005D01*
Y171076D01*
X-9505Y170576D01*
X151075Y78271D02*
X150075D01*
X150575D01*
Y75772D01*
X150075Y75272D01*
X149575D01*
X149076Y75772D01*
X152075Y77771D02*
X152575Y78271D01*
X153574D01*
X154074Y77771D01*
Y77271D01*
X153574Y76772D01*
X153074D01*
X153574D01*
X154074Y76272D01*
Y75772D01*
X153574Y75272D01*
X152575D01*
X152075Y75772D01*
X115642Y245594D02*
X114642D01*
X115142D01*
Y243095D01*
X114642Y242595D01*
X114142D01*
X113643Y243095D01*
X118641Y242595D02*
X116642D01*
X118641Y244594D01*
Y245094D01*
X118141Y245594D01*
X117141D01*
X116642Y245094D01*
X55840Y235724D02*
X55340Y236223D01*
X54340D01*
X53840Y235724D01*
Y233724D01*
X54340Y233224D01*
X55340D01*
X55840Y233724D01*
X56839Y236223D02*
X58838D01*
Y235724D01*
X56839Y233724D01*
Y233224D01*
X140982Y217181D02*
X140482Y217681D01*
X139482D01*
X138983Y217181D01*
Y215182D01*
X139482Y214682D01*
X140482D01*
X140982Y215182D01*
X143981Y217681D02*
X142981Y217181D01*
X141982Y216181D01*
Y215182D01*
X142482Y214682D01*
X143481D01*
X143981Y215182D01*
Y215682D01*
X143481Y216181D01*
X141982D01*
X129834Y82546D02*
X129334Y83046D01*
X128334D01*
X127835Y82546D01*
Y80546D01*
X128334Y80046D01*
X129334D01*
X129834Y80546D01*
X132833Y83046D02*
X130834D01*
Y81546D01*
X131833Y82046D01*
X132333D01*
X132833Y81546D01*
Y80546D01*
X132333Y80046D01*
X131333D01*
X130834Y80546D01*
X132482Y217081D02*
X131982Y217581D01*
X130982D01*
X130483Y217081D01*
Y215082D01*
X130982Y214582D01*
X131982D01*
X132482Y215082D01*
X134981Y214582D02*
Y217581D01*
X133482Y216081D01*
X135481D01*
X102146Y128826D02*
X101646Y129326D01*
X100646D01*
X100146Y128826D01*
Y126827D01*
X100646Y126327D01*
X101646D01*
X102146Y126827D01*
X103146Y128826D02*
X103645Y129326D01*
X104645D01*
X105145Y128826D01*
Y128327D01*
X104645Y127827D01*
X104145D01*
X104645D01*
X105145Y127327D01*
Y126827D01*
X104645Y126327D01*
X103645D01*
X103146Y126827D01*
X-3854Y74826D02*
X-4354Y75326D01*
X-5354D01*
X-5853Y74826D01*
Y72827D01*
X-5354Y72327D01*
X-4354D01*
X-3854Y72827D01*
X-855Y72327D02*
X-2854D01*
X-855Y74327D01*
Y74826D01*
X-1355Y75326D01*
X-2355D01*
X-2854Y74826D01*
X-3937Y87614D02*
X-4437Y88114D01*
X-5437D01*
X-5936Y87614D01*
Y85615D01*
X-5437Y85115D01*
X-4437D01*
X-3937Y85615D01*
X-2937Y85115D02*
X-1938D01*
X-2437D01*
Y88114D01*
X-2937Y87614D01*
M02*
