G04*
G04 #@! TF.GenerationSoftware,Altium Limited,Altium Designer,20.2.4 (192)*
G04*
G04 Layer_Color=8421504*
%FSLAX25Y25*%
%MOIN*%
G70*
G04*
G04 #@! TF.SameCoordinates,2DDED56A-656B-4157-8572-3E544114C1A7*
G04*
G04*
G04 #@! TF.FilePolarity,Positive*
G04*
G01*
G75*
%ADD14R,0.01181X0.02756*%
%ADD15R,0.03937X0.02756*%
%ADD16R,0.05512X0.02559*%
%ADD17R,0.05315X0.04331*%
%ADD18R,0.05512X0.04331*%
%ADD19R,0.02559X0.05512*%
%ADD20R,0.04331X0.05315*%
%ADD21R,0.04331X0.05512*%
%ADD22R,0.07874X0.08661*%
%ADD23R,0.03300X0.03150*%
%ADD24R,0.03150X0.03300*%
%ADD25R,0.02362X0.07756*%
%ADD26R,0.05000X0.04000*%
D14*
X83189Y13842D02*
D03*
X85158D02*
D03*
X87126D02*
D03*
X89095D02*
D03*
X91063D02*
D03*
X93032D02*
D03*
X96969D02*
D03*
X98937D02*
D03*
X100906D02*
D03*
X102874D02*
D03*
X104842D02*
D03*
X106811D02*
D03*
X103858Y8724D02*
D03*
X101890D02*
D03*
X99921D02*
D03*
X97953D02*
D03*
X95984D02*
D03*
X94016D02*
D03*
X92047D02*
D03*
X90079D02*
D03*
X88110D02*
D03*
X86142D02*
D03*
D15*
X107205D02*
D03*
X82795D02*
D03*
D16*
X165650Y72087D02*
D03*
Y46024D02*
D03*
D17*
X141437Y62992D02*
D03*
D18*
Y55118D02*
D03*
D19*
X122701Y254390D02*
D03*
X148764D02*
D03*
D20*
X131795Y230177D02*
D03*
D21*
X139669D02*
D03*
D22*
X52551Y19827D02*
D03*
X40740D02*
D03*
X52457Y5827D02*
D03*
X40646D02*
D03*
X88551Y147827D02*
D03*
X76740D02*
D03*
Y167827D02*
D03*
X88551D02*
D03*
D23*
X61246Y165327D02*
D03*
X55045D02*
D03*
X61246Y144827D02*
D03*
X55045D02*
D03*
X51545Y157827D02*
D03*
X57746D02*
D03*
X157545Y89827D02*
D03*
X163746D02*
D03*
X157545Y99827D02*
D03*
X163746D02*
D03*
X157545Y109827D02*
D03*
X163746D02*
D03*
X157545Y119827D02*
D03*
X163746D02*
D03*
X157545Y129827D02*
D03*
X163746D02*
D03*
X157545Y139827D02*
D03*
X163746D02*
D03*
X157545Y149827D02*
D03*
X163746D02*
D03*
X157545Y179827D02*
D03*
X163746D02*
D03*
X157545Y159827D02*
D03*
X163746D02*
D03*
X157545Y169827D02*
D03*
X163746D02*
D03*
X132646Y191827D02*
D03*
X126445D02*
D03*
X147746D02*
D03*
X141545D02*
D03*
D24*
X90146Y32626D02*
D03*
Y38827D02*
D03*
X112646Y208927D02*
D03*
Y202726D02*
D03*
X160646Y202726D02*
D03*
Y208927D02*
D03*
X152646Y202726D02*
D03*
Y208927D02*
D03*
X120646Y208927D02*
D03*
Y202726D02*
D03*
X83646Y32726D02*
D03*
Y38927D02*
D03*
X109146Y32726D02*
D03*
Y38927D02*
D03*
X103146Y32726D02*
D03*
Y38927D02*
D03*
D25*
X136583Y151496D02*
D03*
X131583D02*
D03*
X126583D02*
D03*
X121583D02*
D03*
Y132008D02*
D03*
X126583D02*
D03*
X131583D02*
D03*
X136583D02*
D03*
D26*
X132583Y202339D02*
D03*
Y209425D02*
D03*
X129921Y67716D02*
D03*
Y74803D02*
D03*
X141083Y202382D02*
D03*
Y209469D02*
D03*
M02*
