G04*
G04 #@! TF.GenerationSoftware,Altium Limited,Altium Designer,20.2.4 (192)*
G04*
G04 Layer_Physical_Order=1*
G04 Layer_Color=255*
%FSLAX25Y25*%
%MOIN*%
G70*
G04*
G04 #@! TF.SameCoordinates,2DDED56A-656B-4157-8572-3E544114C1A7*
G04*
G04*
G04 #@! TF.FilePolarity,Positive*
G04*
G01*
G75*
%ADD12C,0.01000*%
%ADD14R,0.01181X0.02756*%
%ADD15R,0.03937X0.02756*%
%ADD16R,0.05512X0.02559*%
%ADD17R,0.05315X0.04331*%
%ADD18R,0.05512X0.04331*%
%ADD19R,0.02559X0.05512*%
%ADD20R,0.04331X0.05315*%
%ADD21R,0.04331X0.05512*%
%ADD22R,0.07874X0.08661*%
%ADD23R,0.03300X0.03150*%
%ADD24R,0.03150X0.03300*%
%ADD25R,0.02362X0.07756*%
%ADD26R,0.05000X0.04000*%
%ADD52O,0.04331X0.08661*%
%ADD53O,0.05118X0.10236*%
%ADD54R,0.06791X0.06791*%
%ADD55C,0.06791*%
%ADD56R,0.05906X0.05906*%
%ADD57C,0.05906*%
%ADD58C,0.19685*%
%ADD59C,0.04528*%
%ADD60R,0.04528X0.04528*%
%ADD61R,0.04528X0.04528*%
%ADD62R,0.05906X0.05906*%
%ADD63C,0.02362*%
G36*
X192913Y257874D02*
Y-5906D01*
X183071Y-15748D01*
X114827D01*
X114635Y-15286D01*
X117610Y-12311D01*
X181602D01*
X189476Y-4437D01*
X189476Y255405D01*
X188976Y255906D01*
X181102Y263779D01*
X-3937D01*
X-11811Y255906D01*
Y-3937D01*
X-11311Y-4437D01*
X-3437Y-12311D01*
X71366D01*
X74341Y-15286D01*
X74150Y-15748D01*
X-5906D01*
X-15748Y-5906D01*
Y257874D01*
X-5906Y267717D01*
X183071D01*
X192913Y257874D01*
D02*
G37*
D12*
X89095Y13842D02*
Y22406D01*
X86500Y25000D02*
X89095Y22406D01*
X82122Y11315D02*
X92438D01*
X82571Y31652D02*
X83646Y32726D01*
X82571Y22343D02*
Y31652D01*
X81448Y21221D02*
X82571Y22343D01*
X81448Y11988D02*
Y21221D01*
Y11988D02*
X82122Y11315D01*
X92438D02*
X92500Y11252D01*
X93114D01*
X93925Y8815D02*
X94016Y8724D01*
X93925Y8815D02*
Y10441D01*
X93114Y11252D02*
X93925Y10441D01*
X106850Y6932D02*
Y13803D01*
X88551Y167827D02*
X106646D01*
X57746Y157827D02*
X64646D01*
X82441Y6731D02*
Y9551D01*
X83098Y13933D02*
Y16559D01*
Y13933D02*
X83189Y13842D01*
X83098Y16559D02*
X86224Y19685D01*
X106457Y18457D02*
Y20728D01*
Y18088D02*
Y18457D01*
X89988Y8815D02*
X90079Y8724D01*
X93000Y22505D02*
X103146Y32651D01*
X93000Y13449D02*
Y22505D01*
X96969Y13842D02*
X97000Y13874D01*
Y17752D02*
X98574Y19327D01*
X97000Y13874D02*
Y17752D01*
X95000Y12172D02*
Y21581D01*
Y12172D02*
X96075Y11098D01*
X95000Y21581D02*
X103345Y29926D01*
X96075Y8685D02*
Y11098D01*
X106811Y13842D02*
X106850Y13803D01*
X106811Y13842D02*
X106902Y13933D01*
Y15194D01*
X107000Y15293D01*
Y17545D01*
X106457Y18088D02*
X107000Y17545D01*
X100906Y13842D02*
Y16905D01*
X102000Y18000D01*
X102141Y23389D02*
X102401Y23650D01*
X102141Y22524D02*
Y23389D01*
X102000Y18000D02*
Y22383D01*
X102141Y22524D01*
X99921Y8724D02*
Y11232D01*
X100815Y12126D01*
Y13752D01*
X100906Y13842D01*
X99000Y6000D02*
X99921Y6921D01*
Y8724D01*
X91000Y6000D02*
X99000D01*
X90079Y8724D02*
X90169Y8634D01*
Y6831D02*
Y8634D01*
Y6831D02*
X91000Y6000D01*
X106457Y20728D02*
X140847Y55118D01*
X141437D01*
X121354D02*
X140847D01*
X118646Y57827D02*
X121354Y55118D01*
X135146Y62992D02*
X141437D01*
X130421Y67716D02*
X135146Y62992D01*
X129921Y67716D02*
X130421D01*
X129921Y74803D02*
Y104551D01*
X126583Y107890D02*
X129921Y104551D01*
X40646Y5827D02*
X40740Y5921D01*
Y19827D01*
X40669Y19756D02*
X40740Y19827D01*
X27630Y19756D02*
X40669D01*
X87146Y2027D02*
X101946D01*
X82441Y6731D02*
X87146Y2027D01*
X77638Y-8047D02*
X111653D01*
X77638D02*
Y13055D01*
X101946Y2027D02*
X106850Y6932D01*
X111653Y-8047D02*
Y13055D01*
X86224Y19685D02*
X86409D01*
X105870Y32141D02*
X106456Y32726D01*
X103345Y29926D02*
X105197D01*
X106456Y32726D02*
X109146D01*
X105197Y29926D02*
X105870Y30600D01*
Y32141D01*
X52551Y20221D02*
Y30606D01*
Y19827D02*
Y20221D01*
X57257Y24927D01*
X90146Y27827D02*
Y32626D01*
Y27827D02*
X91446Y26527D01*
X103146Y32651D02*
Y32726D01*
X160646Y208927D02*
Y235449D01*
X177165Y251969D01*
X29831Y53327D02*
X52551Y30606D01*
X52457Y5827D02*
Y19732D01*
X52551Y19827D01*
X40646Y154827D02*
X47646D01*
X49571Y156752D01*
X50537D02*
X51612Y157827D01*
X49571Y156752D02*
X50537D01*
X88551Y147827D02*
X106646D01*
X152646Y202726D02*
X152734Y202638D01*
Y197674D02*
Y202638D01*
X121583Y151496D02*
Y176890D01*
X120646Y177827D02*
X121583Y176890D01*
X131583Y160764D02*
X132646Y161827D01*
X131583Y151496D02*
Y160764D01*
X126583Y151496D02*
Y163764D01*
X136646Y173827D01*
Y183827D01*
X141545Y188726D02*
Y191827D01*
X136646Y183827D02*
X141545Y188726D01*
X132646Y177827D02*
Y191827D01*
X126370Y191827D02*
X126445D01*
X120370Y185827D02*
X126370Y191827D01*
X118646Y185827D02*
X120370D01*
X160646Y208927D02*
X161545Y209827D01*
X164646D01*
X166646Y207827D01*
Y199827D02*
Y207827D01*
X147746Y191827D02*
X158646D01*
X166646Y199827D01*
X141545Y191827D02*
Y201919D01*
X141083Y202382D02*
X141545Y201919D01*
X132646Y191827D02*
Y202276D01*
X132583Y202339D02*
X132646Y202276D01*
X112646Y161827D02*
Y202726D01*
X108646Y157827D02*
X112646Y161827D01*
X82646Y157827D02*
X108646D01*
X80177Y155358D02*
X82646Y157827D01*
X80177Y151264D02*
Y155358D01*
X76740Y147827D02*
X80177Y151264D01*
X76740Y167827D02*
X78740Y169827D01*
Y194882D01*
X61246Y165327D02*
X74240D01*
X76740Y167827D01*
X73740Y144827D02*
X76740Y147827D01*
X61246Y144827D02*
X73740D01*
X121583Y129311D02*
Y132008D01*
X118646Y126374D02*
X121583Y129311D01*
X118646Y57827D02*
Y126374D01*
X107006Y214567D02*
X112646Y208927D01*
X78740Y214567D02*
X107006D01*
X125613Y192658D02*
X126445Y191827D01*
X20646Y233244D02*
X31496Y244094D01*
X20646Y224827D02*
Y233244D01*
Y224827D02*
X40646Y204827D01*
X41496Y224410D02*
Y244094D01*
X122701Y254390D02*
X148764D01*
X40646Y144827D02*
X55045D01*
X54545Y164827D02*
X55045Y165327D01*
X40646Y164827D02*
X54545D01*
X131583Y132008D02*
Y138890D01*
X130646Y139827D02*
X131583Y138890D01*
X100457Y139827D02*
X130646D01*
X78740Y118110D02*
X100457Y139827D01*
X61246Y135604D02*
Y144827D01*
Y135604D02*
X78740Y118110D01*
X29988Y107827D02*
Y194169D01*
X40646Y204827D01*
X10146Y53327D02*
X10224Y53405D01*
Y107748D01*
X10303Y107827D01*
X29831Y53327D02*
Y107669D01*
X29988Y107827D01*
X90146Y38827D02*
X91220Y39902D01*
Y57402D01*
X91646Y57827D01*
X83746Y38827D02*
X90146D01*
X83646Y38927D02*
X83746Y38827D01*
X103146Y38927D02*
Y56327D01*
X101646Y57827D02*
X103146Y56327D01*
Y38927D02*
X109146D01*
X165650Y46024D02*
Y72087D01*
X126583Y107890D02*
Y132008D01*
X152646Y202726D02*
X160646D01*
X112646Y202726D02*
X120646D01*
X132583Y209425D02*
Y229390D01*
X131795Y230177D02*
X132583Y229390D01*
X139669Y210882D02*
X141083Y209469D01*
X139669Y210882D02*
Y230177D01*
X141083Y209469D02*
X152104D01*
X152646Y208927D01*
X120646Y208927D02*
X132085D01*
X132583Y209425D01*
X136583Y154193D02*
X142646Y160256D01*
Y175827D02*
X152646Y185827D01*
X142646Y160256D02*
Y175827D01*
X152646Y185827D02*
X160646D01*
X136583Y151496D02*
Y154193D01*
X174646Y199827D02*
X180646D01*
X160646Y185827D02*
X174646Y199827D01*
X180646D02*
Y209827D01*
X136583Y130508D02*
Y132008D01*
Y130508D02*
X137264Y129827D01*
X157545D01*
X163746Y179827D02*
X179307D01*
X181591Y177543D01*
X163746Y169827D02*
X177980D01*
X180263Y167543D01*
X181591D01*
X163746Y159827D02*
X177980D01*
X180263Y157543D01*
X181591D01*
X163746Y149827D02*
X177980D01*
X180263Y147543D01*
X181591D01*
X163746Y139827D02*
X177980D01*
X180263Y137543D01*
X181591D01*
X163746Y129827D02*
X177980D01*
X180263Y127543D01*
X181591D01*
X163746Y119827D02*
X177980D01*
X180263Y117543D01*
X181591D01*
X163746Y109827D02*
X177980D01*
X180263Y107543D01*
X181591D01*
X163746Y99827D02*
X177980D01*
X180263Y97543D01*
X181591D01*
X163746Y89827D02*
X177980D01*
X180263Y87543D01*
X181591D01*
X157545Y169827D02*
Y179827D01*
Y159827D02*
Y169827D01*
Y149827D02*
Y159827D01*
Y139827D02*
Y149827D01*
Y129827D02*
Y139827D01*
Y119827D02*
Y129827D01*
Y109827D02*
Y119827D01*
Y99827D02*
Y109827D01*
Y89827D02*
Y99827D01*
D14*
X83189Y13842D02*
D03*
X85158D02*
D03*
X87126D02*
D03*
X89095D02*
D03*
X91063D02*
D03*
X93032D02*
D03*
X96969D02*
D03*
X98937D02*
D03*
X100906D02*
D03*
X102874D02*
D03*
X104842D02*
D03*
X106811D02*
D03*
X103858Y8724D02*
D03*
X101890D02*
D03*
X99921D02*
D03*
X97953D02*
D03*
X95984D02*
D03*
X94016D02*
D03*
X92047D02*
D03*
X90079D02*
D03*
X88110D02*
D03*
X86142D02*
D03*
D15*
X107205D02*
D03*
X82795D02*
D03*
D16*
X165650Y72087D02*
D03*
Y46024D02*
D03*
D17*
X141437Y62992D02*
D03*
D18*
Y55118D02*
D03*
D19*
X122701Y254390D02*
D03*
X148764D02*
D03*
D20*
X131795Y230177D02*
D03*
D21*
X139669D02*
D03*
D22*
X52551Y19827D02*
D03*
X40740D02*
D03*
X52457Y5827D02*
D03*
X40646D02*
D03*
X88551Y147827D02*
D03*
X76740D02*
D03*
Y167827D02*
D03*
X88551D02*
D03*
D23*
X61246Y165327D02*
D03*
X55045D02*
D03*
X61246Y144827D02*
D03*
X55045D02*
D03*
X51545Y157827D02*
D03*
X57746D02*
D03*
X157545Y89827D02*
D03*
X163746D02*
D03*
X157545Y99827D02*
D03*
X163746D02*
D03*
X157545Y109827D02*
D03*
X163746D02*
D03*
X157545Y119827D02*
D03*
X163746D02*
D03*
X157545Y129827D02*
D03*
X163746D02*
D03*
X157545Y139827D02*
D03*
X163746D02*
D03*
X157545Y149827D02*
D03*
X163746D02*
D03*
X157545Y179827D02*
D03*
X163746D02*
D03*
X157545Y159827D02*
D03*
X163746D02*
D03*
X157545Y169827D02*
D03*
X163746D02*
D03*
X132646Y191827D02*
D03*
X126445D02*
D03*
X147746D02*
D03*
X141545D02*
D03*
D24*
X90146Y32626D02*
D03*
Y38827D02*
D03*
X112646Y208927D02*
D03*
Y202726D02*
D03*
X160646Y202726D02*
D03*
Y208927D02*
D03*
X152646Y202726D02*
D03*
Y208927D02*
D03*
X120646Y208927D02*
D03*
Y202726D02*
D03*
X83646Y32726D02*
D03*
Y38927D02*
D03*
X109146Y32726D02*
D03*
Y38927D02*
D03*
X103146Y32726D02*
D03*
Y38927D02*
D03*
D25*
X136583Y151496D02*
D03*
X131583D02*
D03*
X126583D02*
D03*
X121583D02*
D03*
Y132008D02*
D03*
X126583D02*
D03*
X131583D02*
D03*
X136583D02*
D03*
D26*
X132583Y202339D02*
D03*
Y209425D02*
D03*
X129921Y67716D02*
D03*
Y74803D02*
D03*
X141083Y202382D02*
D03*
Y209469D02*
D03*
D52*
X77992Y12228D02*
D03*
X112008D02*
D03*
D53*
X77992Y-8874D02*
D03*
X112008D02*
D03*
D54*
X10646Y204827D02*
D03*
D55*
Y144827D02*
D03*
X40646D02*
D03*
Y154827D02*
D03*
Y164827D02*
D03*
Y204827D02*
D03*
D56*
X101646Y57827D02*
D03*
X41496Y224410D02*
D03*
X31496Y244094D02*
D03*
D57*
X91646Y57827D02*
D03*
X-7354Y159327D02*
D03*
X31496Y224410D02*
D03*
X180646Y199827D02*
D03*
X41496Y244094D02*
D03*
X181591Y87543D02*
D03*
Y97543D02*
D03*
Y107543D02*
D03*
Y117543D02*
D03*
Y127543D02*
D03*
Y137543D02*
D03*
Y147543D02*
D03*
Y157543D02*
D03*
Y167543D02*
D03*
D58*
X177165Y0D02*
D03*
Y251969D02*
D03*
X0D02*
D03*
Y0D02*
D03*
D59*
X10303Y107827D02*
D03*
X10146Y53327D02*
D03*
X78740Y98425D02*
D03*
Y214567D02*
D03*
D60*
X29988Y107827D02*
D03*
X29831Y53327D02*
D03*
D61*
X78740Y118110D02*
D03*
Y194882D02*
D03*
D62*
X-7354Y149327D02*
D03*
X180646Y209827D02*
D03*
X181591Y177543D02*
D03*
D63*
X86500Y25000D02*
D03*
X98574Y19327D02*
D03*
X106457Y18457D02*
D03*
X86409Y19685D02*
D03*
X102401Y23650D02*
D03*
X58355Y24955D02*
D03*
X91446Y26527D02*
D03*
X27630Y19756D02*
D03*
X64209Y157571D02*
D03*
X106547Y167482D02*
D03*
X106646Y147827D02*
D03*
X152734Y197674D02*
D03*
X120646Y177827D02*
D03*
X132646Y161827D02*
D03*
Y177827D02*
D03*
X118646Y185827D02*
D03*
M02*
